<svg xmlns="http://www.w3.org/2000/svg" xmlns:xlink="http://www.w3.org/1999/xlink" width="300" zoomAndPan="magnify" viewBox="0 0 224.87999 225" height="300" preserveAspectRatio="xMidYMid meet" version="1.0"><defs><clipPath id="5a4c002f96"><path d="M 0 0.0585938 L 224.761719 0.0585938 L 224.761719 55 L 0 55 Z M 0 0.0585938 " clip-rule="nonzero"/></clipPath><clipPath id="bdf35a2cb9"><path d="M 0 0.0585938 L 224.761719 0.0585938 L 224.761719 55.121094 L 0 55.121094 Z M 0 0.0585938 " clip-rule="nonzero"/></clipPath></defs><g clip-path="url(#5a4c002f96)"><path fill="#8a008a" d="M 184.457031 25.867188 L 171.878906 35.910156 L 165.558594 32.613281 Z M -25.917969 -0.0585938 L -7.3125 7.386719 L 2.898438 20.179688 L 23.242188 15.621094 L 31.679688 23.207031 L 57.859375 28.007812 L 66.492188 41.539062 L 81.835938 34.628906 L 93.152344 49.125 L 108.015625 54.882812 L 115.882812 47.589844 L 129.210938 40.195312 L 147.050781 44.613281 L 165.558594 32.613281 L 184.457031 25.867188 L 209.039062 23.277344 L 220.703125 10.917969 L 233.839844 3.527344 L 240.324219 -6.453125 L 235.996094 -5.5625 L 226.324219 -7.800781 L 194.035156 -2.679688 L 170.933594 -6.28125 L 143.039062 -3.480469 L 125.9375 -3.082031 L 90.210938 -7.320312 L 75.582031 -5.640625 L 56.878906 -7.800781 L 38.496094 -3.882812 L 30.585938 -6.363281 L 11.320312 -3.5625 L -11.21875 -9.480469 L -20.570312 -7.800781 L -28.320312 -9.882812 L -32.992188 -6.457031 Z M -25.917969 -0.0585938 " fill-opacity="1" fill-rule="nonzero"/></g><g clip-path="url(#bdf35a2cb9)"><path fill="#111111" d="M -33.089844 -6.347656 L -26.011719 0.046875 C -26.007812 0.0507812 -26.003906 0.0507812 -26 0.0546875 C -25.992188 0.0585938 -25.984375 0.0625 -25.980469 0.0664062 C -25.976562 0.0664062 -25.972656 0.0742188 -25.96875 0.0742188 L -7.398438 7.507812 L 2.785156 20.269531 C 2.789062 20.277344 2.800781 20.277344 2.808594 20.28125 C 2.820312 20.292969 2.832031 20.300781 2.847656 20.304688 C 2.863281 20.3125 2.878906 20.316406 2.898438 20.316406 C 2.910156 20.316406 2.917969 20.320312 2.925781 20.320312 L 23.199219 15.78125 L 31.582031 23.3125 C 31.585938 23.3125 31.585938 23.3125 31.585938 23.316406 C 31.589844 23.316406 31.589844 23.316406 31.589844 23.320312 C 31.597656 23.324219 31.605469 23.324219 31.613281 23.328125 C 31.625 23.335938 31.636719 23.34375 31.652344 23.347656 L 57.773438 28.136719 L 66.371094 41.617188 C 66.375 41.621094 66.382812 41.625 66.386719 41.628906 C 66.398438 41.640625 66.410156 41.648438 66.425781 41.65625 C 66.441406 41.667969 66.453125 41.671875 66.46875 41.675781 C 66.476562 41.675781 66.480469 41.683594 66.488281 41.683594 C 66.5 41.683594 66.507812 41.675781 66.515625 41.671875 C 66.527344 41.671875 66.539062 41.675781 66.550781 41.671875 L 81.792969 34.808594 L 93.039062 49.210938 C 93.046875 49.222656 93.054688 49.222656 93.0625 49.230469 C 93.070312 49.238281 93.078125 49.246094 93.089844 49.25 C 93.09375 49.25 93.09375 49.257812 93.101562 49.257812 L 107.964844 55.015625 C 107.992188 55.027344 108.019531 55.027344 108.042969 55.023438 C 108.046875 55.023438 108.046875 55.023438 108.046875 55.023438 C 108.050781 55.023438 108.050781 55.019531 108.054688 55.015625 C 108.078125 55.011719 108.097656 55.003906 108.113281 54.988281 L 115.949219 47.714844 L 129.230469 40.347656 L 147.015625 44.753906 C 147.019531 44.753906 147.023438 44.75 147.027344 44.75 C 147.050781 44.753906 147.074219 44.753906 147.097656 44.75 C 147.101562 44.746094 147.105469 44.738281 147.113281 44.734375 C 147.117188 44.734375 147.125 44.734375 147.128906 44.734375 L 165.5625 32.777344 L 171.8125 36.039062 C 171.863281 36.066406 171.925781 36.058594 171.96875 36.023438 L 184.511719 26.003906 L 209.054688 23.421875 C 209.066406 23.421875 209.074219 23.410156 209.082031 23.410156 C 209.097656 23.402344 209.109375 23.398438 209.121094 23.390625 C 209.128906 23.382812 209.140625 23.382812 209.144531 23.378906 L 220.792969 11.035156 L 233.910156 3.652344 C 233.917969 3.648438 233.921875 3.644531 233.925781 3.640625 C 233.933594 3.636719 233.9375 3.632812 233.941406 3.628906 C 233.945312 3.625 233.949219 3.621094 233.949219 3.617188 C 233.953125 3.613281 233.957031 3.609375 233.960938 3.605469 L 240.445312 -6.375 C 240.476562 -6.425781 240.476562 -6.488281 240.445312 -6.535156 C 240.410156 -6.582031 240.351562 -6.605469 240.296875 -6.59375 L 235.996094 -5.707031 L 226.355469 -7.9375 C 226.347656 -7.941406 226.34375 -7.9375 226.335938 -7.941406 C 226.332031 -7.941406 226.328125 -7.941406 226.324219 -7.941406 C 226.320312 -7.941406 226.320312 -7.941406 226.316406 -7.941406 C 226.3125 -7.941406 226.304688 -7.941406 226.300781 -7.941406 L 194.035156 -2.824219 L 170.957031 -6.421875 C 170.953125 -6.421875 170.945312 -6.421875 170.9375 -6.421875 C 170.9375 -6.421875 170.9375 -6.421875 170.933594 -6.421875 C 170.933594 -6.421875 170.933594 -6.421875 170.929688 -6.421875 C 170.925781 -6.421875 170.925781 -6.421875 170.921875 -6.421875 L 143.035156 -3.621094 L 125.953125 -3.222656 L 100.339844 -6.257812 C 100.335938 -6.257812 100.332031 -6.261719 100.328125 -6.261719 C 100.328125 -6.261719 100.324219 -6.257812 100.324219 -6.257812 L 90.230469 -7.457031 C 90.222656 -7.457031 90.214844 -7.460938 90.210938 -7.460938 C 90.207031 -7.460938 90.203125 -7.460938 90.203125 -7.460938 L 90.191406 -7.460938 L 75.597656 -5.78125 L 56.894531 -7.941406 C 56.894531 -7.941406 56.890625 -7.941406 56.886719 -7.941406 C 56.886719 -7.941406 56.882812 -7.941406 56.878906 -7.941406 C 56.875 -7.941406 56.875 -7.941406 56.871094 -7.941406 C 56.863281 -7.9375 56.855469 -7.941406 56.851562 -7.9375 L 38.503906 -4.027344 L 30.625 -6.496094 C 30.617188 -6.5 30.605469 -6.496094 30.59375 -6.496094 C 30.589844 -6.5 30.589844 -6.5 30.585938 -6.5 C 30.578125 -6.5 30.574219 -6.5 30.570312 -6.5 C 30.566406 -6.5 30.566406 -6.5 30.5625 -6.5 L 11.328125 -3.703125 L -11.183594 -9.617188 C -11.1875 -9.617188 -11.195312 -9.617188 -11.203125 -9.617188 C -11.207031 -9.617188 -11.210938 -9.621094 -11.21875 -9.621094 C -11.222656 -9.621094 -11.226562 -9.617188 -11.226562 -9.617188 C -11.234375 -9.617188 -11.238281 -9.621094 -11.242188 -9.617188 L -20.5625 -7.945312 L -28.285156 -10.015625 C -28.296875 -10.019531 -28.308594 -10.019531 -28.320312 -10.019531 C -28.332031 -10.019531 -28.34375 -10.019531 -28.355469 -10.015625 C -28.363281 -10.015625 -28.367188 -10.007812 -28.375 -10.003906 C -28.386719 -10 -28.398438 -10 -28.40625 -9.992188 L -33.078125 -6.566406 C -33.113281 -6.542969 -33.132812 -6.5 -33.136719 -6.457031 C -33.140625 -6.414062 -33.121094 -6.375 -33.089844 -6.347656 Z M -11.902344 -9.210938 L -25.394531 -0.5625 L -20.484375 -7.671875 Z M 44.148438 -4.941406 L 53.652344 8.113281 L 38.820312 -3.804688 Z M 99.625 -6.058594 L 77.753906 0.449219 L 90.242188 -7.171875 Z M 142.980469 -3.335938 L 149.414062 3.425781 L 126.886719 -2.960938 Z M 226.253906 -7.644531 L 233.542969 3.335938 L 194.957031 -2.683594 Z M 220.699219 10.757812 L 211.644531 6.140625 L 233.160156 3.75 Z M 208.996094 23.117188 L 198.835938 20.09375 L 220.140625 11.304688 Z M 115.882812 47.429688 L 110.140625 44.660156 L 128.265625 40.558594 Z M 23.523438 15.683594 L 35.265625 11.972656 L 31.613281 22.953125 Z M -25.519531 -0.144531 L -11.257812 -9.285156 L -2.628906 3.292969 Z M -2.09375 3.753906 L 22.804688 15.574219 L 2.992188 20.011719 Z M 35.269531 11.671875 L 23.671875 15.335938 L 31.664062 5.925781 Z M 211.179688 5.902344 L 194.898438 -2.402344 L 232.757812 3.503906 Z M 211.1875 6.226562 L 220.359375 10.90625 L 198.9375 19.738281 Z M 210.921875 6.09375 L 198.492188 19.804688 L 194.230469 -2.417969 Z M 198.246094 20.027344 L 184.691406 25.613281 L 193.996094 -2.117188 Z M 184.464844 25.390625 L 181.246094 14.480469 L 193.621094 -1.894531 Z M 94.246094 48.972656 L 109.382812 44.847656 L 106.722656 48.898438 Z M 81.875 34.464844 L 70.210938 22.339844 L 92.386719 30.890625 Z M 54.871094 8.882812 L 75.917969 1.34375 L 63.027344 11.164062 Z M 62.878906 11.421875 L 57.898438 27.40625 L 54.582031 9.101562 Z M 183.726562 25.976562 L 165.890625 32.34375 L 170.167969 25.339844 Z M 170.421875 25.066406 L 181.015625 14.722656 L 184.261719 25.714844 Z M 165.554688 32.347656 L 161.058594 25.574219 L 169.828125 25.34375 Z M 131.410156 26.605469 L 151.503906 12.085938 L 137.207031 32.390625 Z M 165.292969 32.46875 L 138.1875 32.46875 L 160.738281 25.605469 Z M 161.011719 24.863281 L 162.726562 10.957031 L 172.601562 7.699219 Z M 162.613281 10.691406 L 150.652344 3.976562 L 172.355469 7.480469 Z M 160.707031 25.019531 L 152.363281 11.597656 L 162.433594 11 Z M 160.578125 25.355469 L 137.582031 32.355469 L 152.105469 11.726562 Z M 131.992188 25.832031 L 149.820312 4.007812 L 151.949219 11.410156 Z M 131.179688 26.375 L 116.183594 11.402344 L 149.507812 3.9375 Z M 130.996094 26.597656 L 125.347656 33.175781 L 116.316406 11.941406 Z M 129.125 39.757812 L 125.59375 33.652344 L 129.777344 34.558594 Z M 125.570312 33.351562 L 130.96875 27.066406 L 129.820312 34.273438 Z M 106.847656 32.792969 L 124.886719 33.566406 L 109.796875 44.375 Z M 125.085938 33.289062 L 106.878906 32.511719 L 113.175781 18.25 C 113.175781 18.25 113.179688 18.25 113.179688 18.246094 L 115.898438 11.691406 Z M 106.574219 32.488281 L 92.933594 30.773438 L 90.351562 11.175781 L 112.851562 18.28125 Z M 92.851562 31.050781 L 105.265625 32.613281 L 89.796875 33.847656 Z M 90.199219 10.808594 L 77.234375 1.089844 L 105.707031 3.796875 Z M 89.757812 10.835938 L 74.644531 11.03125 L 76.832031 1.144531 Z M 63.316406 11.460938 L 74.246094 11.320312 L 69.640625 21.667969 Z M 63.492188 11.171875 L 76.515625 1.246094 L 74.355469 11.03125 Z M 74.558594 11.316406 L 89.59375 11.125 L 69.960938 21.648438 Z M 69.511719 22.003906 L 66.515625 40.492188 L 63.273438 11.9375 Z M 90.066406 11.199219 L 92.632812 30.679688 L 70.003906 21.953125 Z M 92.203125 31.257812 L 89.332031 33.886719 L 82.96875 34.394531 Z M 106.339844 32.8125 L 93.222656 48.8125 L 89.574219 34.15625 Z M 106.59375 32.953125 L 109.535156 44.511719 L 93.546875 48.867188 Z M 109.761719 44.796875 L 115.40625 47.519531 L 107.097656 48.851562 Z M 125.261719 33.648438 L 128.992188 40.097656 L 110.367188 44.316406 Z M 130.066406 34.5625 L 136.730469 32.886719 L 129.40625 39.816406 Z M 130.113281 34.253906 L 131.285156 26.886719 L 136.945312 32.535156 Z M 138.203125 32.757812 L 163.804688 32.757812 L 147.28125 35.472656 Z M 147.125 35.722656 L 146.917969 44.222656 L 137.632812 32.886719 Z M 181.0625 14.246094 L 173.214844 7.46875 L 193.5625 -2.296875 Z M 180.875 14.460938 L 170.027344 25.050781 L 161.074219 25.289062 L 172.984375 7.644531 Z M 150.359375 3.640625 L 170.820312 -6.070312 L 172.789062 7.261719 Z M 162.101562 10.734375 L 152.21875 11.320312 L 150.113281 4.003906 Z M 116.222656 11.101562 L 125.996094 -2.914062 L 149.296875 3.691406 Z M 115.867188 11.113281 L 106.550781 3.757812 L 125.566406 -2.800781 Z M 115.722656 11.367188 L 113.039062 17.839844 L 106.644531 4.195312 Z M 106.1875 3.894531 L 112.777344 17.957031 L 90.578125 10.949219 Z M 77.488281 0.824219 L 100.265625 -5.949219 L 105.988281 3.539062 Z M 54.578125 8.683594 L 56.992188 -7.59375 L 76.351562 0.886719 Z M 35.597656 11.882812 L 53.746094 9.144531 L 31.941406 22.871094 Z M 35.667969 11.582031 L 38.59375 -3.621094 L 54.058594 8.808594 Z M 35.417969 11.371094 L 31.851562 5.6875 L 38.230469 -3.265625 Z M 23.203125 15.445312 L -1.589844 3.675781 L 31.386719 5.808594 Z M -1.800781 3.371094 L 11.324219 -3.402344 L 30.90625 5.488281 Z M 54.296875 9.132812 L 57.683594 27.828125 L 32.066406 23.132812 Z M 62.992188 12.011719 L 66.28125 40.941406 L 58.015625 27.984375 Z M 69.757812 22.277344 L 81.59375 34.582031 L 66.675781 41.300781 Z M 89.285156 34.175781 L 92.851562 48.503906 L 82.113281 34.75 Z M 106.683594 49.1875 L 107.824219 54.65625 L 93.90625 49.261719 Z M 106.96875 49.160156 L 115.4375 47.804688 L 108.105469 54.605469 Z M 137.210938 32.824219 L 146.667969 44.371094 L 129.5 40.121094 Z M 147.410156 35.742188 L 164.90625 32.867188 L 147.199219 44.34375 Z M 198.414062 20.265625 L 208.3125 23.210938 L 185.417969 25.625 Z M 226.640625 -7.578125 L 235.824219 -5.453125 L 233.777344 3.175781 Z M 173.070312 7.21875 L 171.105469 -6.109375 L 193.554688 -2.609375 Z M 149.914062 3.535156 L 143.347656 -3.367188 L 170.128906 -6.054688 Z M 106.378906 3.515625 L 105.304688 -5.386719 L 125.300781 -3.015625 Z M 106.035156 3.0625 L 100.601562 -5.941406 L 105.015625 -5.421875 Z M 76.84375 0.667969 L 75.75 -5.515625 L 89.585938 -7.109375 Z M 76.550781 0.660156 L 57.8125 -7.550781 L 75.460938 -5.515625 Z M 54.308594 8.53125 L 44.457031 -5.007812 L 56.707031 -7.617188 Z M 31.785156 5.285156 L 30.746094 -6.160156 L 38.265625 -3.804688 Z M 31.515625 5.449219 L 11.824219 -3.488281 L 30.457031 -6.195312 Z M -2.28125 3.296875 L -10.882812 -9.246094 L 10.925781 -3.515625 Z M -25.851562 -0.402344 L -28.125 -9.679688 L -20.800781 -7.714844 Z M -2.675781 3.574219 L -7.335938 7.222656 L -24.71875 0.265625 Z M -7.109375 7.410156 L -2.402344 3.722656 L 2.53125 19.492188 Z M 171.863281 35.742188 L 165.914062 32.636719 L 183.699219 26.289062 Z M 234.171875 2.757812 L 236.113281 -5.4375 L 240.019531 -6.242188 Z M -28.410156 -9.636719 L -26.167969 -0.476562 L -32.765625 -6.441406 Z M -28.410156 -9.636719 " fill-opacity="1" fill-rule="nonzero"/></g></svg>