<svg xmlns="http://www.w3.org/2000/svg" xmlns:xlink="http://www.w3.org/1999/xlink" width="500" zoomAndPan="magnify" viewBox="0 0 375 374.999991" height="500" preserveAspectRatio="xMidYMid meet" version="1.0"><defs><clipPath id="694e012efb"><path d="M 37.5 37.5 L 337.5 37.5 L 337.5 338 L 37.5 338 Z M 37.5 37.5 " clip-rule="nonzero"/></clipPath><clipPath id="a8dd661568"><path d="M 49 37.5 L 299 37.5 L 299 337 L 49 337 Z M 49 37.5 " clip-rule="nonzero"/></clipPath><clipPath id="3e98eab36e"><path d="M 37.5 142 L 327 142 L 327 338 L 37.5 338 Z M 37.5 142 " clip-rule="nonzero"/></clipPath><clipPath id="a1efb95424"><path d="M 40 115 L 337.5 115 L 337.5 337 L 40 337 Z M 40 115 " clip-rule="nonzero"/></clipPath><clipPath id="8c6b4aa940"><path d="M 37.5 38 L 337.5 38 L 337.5 337 L 37.5 337 Z M 37.5 38 " clip-rule="nonzero"/></clipPath></defs><g clip-path="url(#694e012efb)"><path fill="#111111" d="M 337.316406 172.730469 L 298.992188 130.21875 C 298.992188 130.21875 298.871094 130.195312 298.648438 130.148438 C 287.941406 77.703125 236.628906 37.949219 174.9375 37.949219 C 171.347656 37.949219 167.792969 38.09375 164.277344 38.355469 L 164.285156 38.347656 C 164.253906 38.351562 164.226562 38.359375 164.199219 38.363281 C 101.835938 43.085938 52.4375 88.519531 49.324219 144.863281 C 47.042969 147.542969 45.015625 151.015625 43.34375 155.101562 C 39.804688 162.4375 37.621094 172.441406 37.621094 183.480469 C 37.621094 194.519531 39.804688 204.527344 43.34375 211.863281 C 47.414062 221.820312 53.582031 228.171875 60.488281 228.171875 L 94.121094 229.503906 L 113.058594 275.449219 L 213.78125 336.824219 C 238.589844 342.253906 267.894531 326.394531 267.894531 326.394531 L 284.628906 258.363281 L 313.027344 250.929688 C 313.035156 250.925781 313.046875 250.921875 313.058594 250.921875 L 313.074219 250.914062 C 330.117188 246.386719 315.066406 236.03125 315.066406 236.03125 L 326.421875 175.746094 L 326.429688 175.746094 C 330.007812 175.710938 333.398438 175.597656 336.570312 175.394531 Z M 337.316406 172.730469 " fill-opacity="1" fill-rule="nonzero"/></g><g clip-path="url(#a8dd661568)"><path fill="#8d2c91" d="M 91.621094 93.789062 C 80.746094 117.480469 79.714844 139.992188 79.703125 140.289062 L 62.035156 138.914062 C 61.523438 138.84375 61.007812 138.792969 60.484375 138.792969 C 56.414062 138.792969 52.605469 141.011719 49.324219 144.863281 C 52.414062 88.945312 101.097656 43.769531 162.789062 38.476562 C 144.953125 41.378906 129.515625 48.363281 116.898438 59.269531 C 106.523438 68.238281 98.019531 79.851562 91.621094 93.789062 Z M 97.183594 117.75 L 97.296875 117.710938 L 97.40625 117.675781 L 97.417969 117.703125 C 190.042969 109.34375 292.0625 128.859375 298.648438 130.148438 C 287.941406 77.703125 236.628906 37.949219 174.9375 37.949219 C 171.386719 37.949219 167.875 38.089844 164.398438 38.347656 C 164.398438 38.40625 164.363281 38.457031 164.304688 38.464844 C 145.882812 41.210938 129.988281 48.269531 117.054688 59.445312 C 106.707031 68.390625 98.226562 79.976562 91.839844 93.882812 C 81.441406 116.539062 80.058594 138.101562 79.949219 140.132812 L 97.207031 117.824219 Z M 209.195312 258.964844 L 209.183594 258.753906 C 182.628906 255.769531 149.769531 249.394531 111.984375 236.734375 L 111.746094 236.828125 L 111.699219 236.726562 L 100.898438 212.539062 C 99.125 217.636719 96.535156 221.546875 93.296875 223.730469 C 93.304688 223.742188 93.320312 223.757812 93.324219 223.773438 L 94.238281 229.484375 L 113.152344 275.367188 L 213.648438 336.601562 L 209.179688 259.015625 C 209.175781 258.996094 209.1875 258.984375 209.195312 258.964844 Z M 100.953125 212.375 L 100.957031 212.375 C 100.957031 212.375 100.957031 212.375 100.953125 212.375 Z M 100.953125 212.375 " fill-opacity="1" fill-rule="nonzero"/></g><g clip-path="url(#3e98eab36e)"><path fill="#ef4523" d="M 326.277344 175.863281 C 325.035156 175.832031 323.785156 175.796875 322.53125 175.753906 C 306.847656 175.675781 287.972656 174.230469 267.992188 172.003906 L 264.65625 175.089844 C 264.632812 175.113281 264.605469 175.125 264.578125 175.125 C 264.546875 175.125 264.511719 175.109375 264.488281 175.085938 C 264.445312 175.035156 264.449219 174.960938 264.496094 174.917969 L 267.679688 171.96875 C 264.773438 171.644531 261.847656 171.300781 258.902344 170.945312 L 248.894531 180.214844 C 248.871094 180.234375 248.84375 180.246094 248.816406 180.246094 C 248.785156 180.246094 248.75 180.234375 248.726562 180.207031 C 248.683594 180.160156 248.6875 180.085938 248.734375 180.039062 L 258.59375 170.910156 C 251.707031 170.074219 244.734375 169.164062 237.753906 168.195312 C 228.59375 166.988281 219.65625 165.710938 211.105469 164.421875 L 152.515625 218.691406 C 152.492188 218.714844 152.464844 218.722656 152.433594 218.722656 C 152.402344 218.722656 152.371094 218.710938 152.347656 218.6875 C 152.304688 218.636719 152.304688 218.5625 152.355469 218.519531 L 210.804688 164.375 C 200.492188 162.816406 190.75 161.238281 181.886719 159.738281 C 174.632812 158.511719 167.695312 157.285156 161.15625 156.101562 L 138.320312 176.804688 C 138.296875 176.824219 138.269531 176.835938 138.238281 176.835938 C 138.207031 176.835938 138.175781 176.824219 138.152344 176.796875 C 138.109375 176.75 138.109375 176.675781 138.160156 176.628906 L 160.863281 156.046875 C 139.03125 152.085938 121.796875 148.554688 112.921875 146.683594 L 137.289062 225.085938 C 137.289062 225.085938 160.101562 230.667969 188.097656 236.207031 L 213.917969 212.289062 C 213.964844 212.242188 214.039062 212.246094 214.085938 212.296875 C 214.128906 212.34375 214.128906 212.417969 214.078125 212.464844 L 188.386719 236.261719 C 209.070312 240.351562 232.542969 244.402344 251.730469 246.164062 L 316.125 186.511719 C 316.171875 186.46875 316.25 186.472656 316.292969 186.519531 C 316.335938 186.566406 316.335938 186.640625 316.285156 186.6875 L 252.046875 246.195312 C 252.980469 246.277344 253.90625 246.359375 254.816406 246.433594 C 255.863281 246.519531 256.875 246.601562 257.890625 246.679688 L 312.375 196.214844 C 312.421875 196.167969 312.496094 196.171875 312.542969 196.21875 C 312.585938 196.269531 312.582031 196.34375 312.535156 196.386719 L 258.210938 246.707031 C 300.703125 250.132812 315.066406 251.15625 315.066406 236.03125 L 314.949219 236.007812 Z M 178.25 188.757812 L 192.175781 175.859375 C 192.222656 175.8125 192.296875 175.816406 192.34375 175.863281 C 192.386719 175.914062 192.386719 175.988281 192.335938 176.03125 L 178.410156 188.933594 C 178.386719 188.953125 178.359375 188.964844 178.328125 188.964844 C 178.296875 188.964844 178.265625 188.949219 178.242188 188.925781 C 178.199219 188.878906 178.199219 188.800781 178.25 188.757812 Z M 150.476562 214.765625 C 150.445312 214.765625 150.414062 214.75 150.390625 214.726562 C 150.34375 214.679688 150.347656 214.601562 150.398438 214.558594 L 164.324219 201.65625 C 164.371094 201.613281 164.445312 201.617188 164.492188 201.664062 C 164.535156 201.714844 164.53125 201.789062 164.484375 201.832031 L 150.558594 214.734375 C 150.535156 214.753906 150.503906 214.765625 150.476562 214.765625 Z M 229.839844 207.34375 L 217.585938 218.695312 C 217.5625 218.714844 217.535156 218.726562 217.503906 218.726562 C 217.472656 218.726562 217.441406 218.710938 217.417969 218.6875 C 217.375 218.640625 217.375 218.566406 217.425781 218.519531 L 229.679688 207.167969 C 229.726562 207.121094 229.800781 207.125 229.847656 207.175781 C 229.890625 207.222656 229.890625 207.296875 229.839844 207.34375 Z M 161.082031 155.847656 C 146.867188 153.269531 134.597656 150.875 125.296875 148.996094 C 134.667969 150.84375 147.003906 153.21875 161.152344 155.785156 Z M 181.925781 159.507812 C 174.738281 158.289062 167.863281 157.078125 161.378906 155.902344 L 161.449219 155.839844 C 172.269531 157.800781 184.136719 159.875 196.535156 161.914062 C 191.457031 161.101562 186.566406 160.292969 181.925781 159.507812 Z M 57.84375 142.871094 C 46.757812 142.871094 37.738281 161.089844 37.738281 183.480469 C 37.738281 205.871094 46.757812 224.089844 57.84375 224.089844 C 68.929688 224.089844 77.949219 205.871094 77.949219 183.480469 C 77.949219 161.089844 68.929688 142.871094 57.84375 142.871094 Z M 70.269531 185.089844 C 70.269531 192.253906 68.984375 199.171875 66.652344 204.574219 C 64.332031 209.9375 61.136719 213.46875 57.648438 214.511719 C 56.914062 214.730469 56.167969 214.839844 55.4375 214.839844 C 47.257812 214.839844 40.605469 201.496094 40.605469 185.09375 C 40.605469 168.6875 47.257812 155.34375 55.4375 155.34375 C 56.171875 155.34375 56.914062 155.453125 57.648438 155.671875 C 61.136719 156.714844 64.332031 160.242188 66.652344 165.609375 C 68.984375 171.007812 70.269531 177.925781 70.269531 185.089844 Z M 267.726562 326.484375 C 265.441406 327.6875 237.6875 341.953125 213.953125 336.855469 C 214.824219 336.324219 221.089844 332.621094 230.277344 329.5625 C 239.347656 326.546875 253.199219 323.574219 267.726562 326.484375 Z M 267.726562 326.484375 " fill-opacity="1" fill-rule="nonzero"/></g><g clip-path="url(#a1efb95424)"><path fill="#ef529c" d="M 209.183594 258.753906 L 209.195312 258.964844 C 209.210938 258.925781 209.242188 258.894531 209.289062 258.890625 C 209.351562 258.890625 209.410156 258.9375 209.414062 259.003906 L 213.886719 336.617188 C 214.929688 335.988281 221.140625 332.351562 230.195312 329.339844 C 239.328125 326.300781 253.289062 323.304688 267.921875 326.277344 C 267.921875 326.277344 267.921875 326.277344 267.925781 326.277344 L 284.628906 258.359375 L 283.246094 258.722656 C 283.246094 258.722656 256.023438 264.015625 209.183594 258.753906 Z M 261.425781 292.644531 C 261.417969 292.699219 261.378906 292.742188 261.324219 292.75 C 249.800781 294.585938 232.539062 295.042969 232.367188 295.050781 C 232.367188 295.050781 232.363281 295.050781 232.363281 295.050781 C 232.332031 295.050781 232.300781 295.035156 232.277344 295.011719 C 232.253906 294.988281 232.242188 294.953125 232.246094 294.921875 L 232.527344 291.226562 C 232.53125 291.167969 232.582031 291.117188 232.644531 291.117188 C 252.640625 290.699219 261.511719 288.964844 261.601562 288.949219 C 261.636719 288.945312 261.675781 288.953125 261.703125 288.976562 C 261.730469 289 261.746094 289.039062 261.742188 289.074219 Z M 97.296875 117.710938 Z M 106.402344 145.285156 L 133.769531 228.164062 L 133.730469 228.058594 L 111.867188 236.527344 L 101.0625 212.328125 L 100.957031 212.375 L 100.953125 212.375 C 103.863281 203.902344 104.554688 192.210938 102.3125 179.722656 C 101.757812 176.640625 101.050781 173.664062 100.214844 170.824219 L 100.21875 170.824219 C 93.984375 147.679688 81.117188 140.929688 79.917969 140.347656 C 79.925781 140.332031 79.9375 140.320312 79.9375 140.304688 C 79.9375 140.292969 79.941406 140.226562 79.949219 140.132812 L 97.207031 117.824219 L 106.242188 145.195312 L 106.265625 145.257812 L 106.332031 145.273438 C 106.339844 145.273438 106.375 145.28125 106.402344 145.285156 Z M 104.347656 138.695312 L 97.417969 117.703125 C 190.046875 109.34375 292.0625 128.863281 298.648438 130.152344 C 298.871094 130.195312 298.992188 130.21875 298.992188 130.21875 L 337.214844 172.617188 C 335.644531 172.671875 314.835938 173.296875 277.15625 169.65625 C 241.148438 166.175781 181.941406 157.980469 104.347656 138.695312 Z M 337.160156 172.855469 L 336.480469 175.277344 L 326.417969 175.628906 C 284.476562 174.621094 234.898438 168.066406 196.53125 161.914062 C 184.136719 159.875 172.265625 157.800781 161.449219 155.839844 C 161.347656 155.820312 161.253906 155.800781 161.152344 155.785156 C 147.003906 153.21875 134.667969 150.84375 125.296875 148.996094 C 120.195312 147.964844 115.980469 147.089844 112.84375 146.425781 L 112.777344 146.222656 L 108.722656 145.546875 C 107.457031 145.277344 106.671875 145.105469 106.449219 145.054688 L 104.4375 138.960938 C 181.972656 158.222656 241.136719 166.414062 277.132812 169.890625 C 314.355469 173.488281 335.132812 172.921875 337.160156 172.855469 Z M 237.753906 168.195312 C 265.628906 171.867188 295.511719 174.902344 322.53125 175.753906 C 306.84375 175.675781 287.972656 174.230469 267.992188 172.003906 C 267.886719 171.992188 267.785156 171.980469 267.679688 171.96875 C 264.773438 171.644531 261.84375 171.300781 258.898438 170.945312 C 258.796875 170.933594 258.695312 170.921875 258.589844 170.910156 C 251.707031 170.074219 244.734375 169.164062 237.753906 168.195312 Z M 82.675781 183.480469 C 82.675781 208.160156 72.742188 228.171875 60.484375 228.171875 C 53.921875 228.171875 48.023438 222.425781 43.960938 213.300781 C 47.597656 220.132812 52.480469 224.328125 57.84375 224.328125 C 69.058594 224.328125 78.183594 206.003906 78.183594 183.480469 C 78.183594 160.957031 69.058594 142.636719 57.84375 142.636719 C 52.480469 142.636719 47.597656 146.832031 43.960938 153.664062 C 45.503906 150.195312 47.316406 147.222656 49.324219 144.863281 C 52.605469 141.011719 56.417969 138.792969 60.488281 138.792969 C 61.007812 138.792969 61.523438 138.84375 62.035156 138.914062 C 73.566406 140.519531 82.675781 159.851562 82.675781 183.480469 Z M 55.433594 155.578125 C 56.019531 155.578125 56.613281 155.652344 57.199219 155.796875 C 57.171875 155.804688 57.148438 155.820312 57.121094 155.828125 C 56.757812 155.960938 56.398438 156.121094 56.046875 156.304688 C 55.992188 156.335938 55.933594 156.363281 55.878906 156.394531 C 55.527344 156.589844 55.175781 156.808594 54.832031 157.050781 C 54.777344 157.089844 54.726562 157.128906 54.671875 157.167969 C 54.328125 157.421875 53.988281 157.699219 53.65625 158.003906 C 53.605469 158.046875 53.558594 158.09375 53.511719 158.140625 C 53.175781 158.453125 52.847656 158.789062 52.523438 159.152344 C 52.480469 159.199219 52.4375 159.253906 52.398438 159.300781 C 52.070312 159.675781 51.753906 160.070312 51.445312 160.496094 C 51.410156 160.542969 51.375 160.59375 51.339844 160.644531 C 51.023438 161.078125 50.71875 161.539062 50.421875 162.023438 C 50.394531 162.066406 50.371094 162.109375 50.34375 162.152344 C 50.042969 162.652344 49.746094 163.175781 49.464844 163.730469 C 49.449219 163.757812 49.433594 163.789062 49.417969 163.816406 C 49.128906 164.390625 48.84375 164.984375 48.574219 165.609375 C 46.242188 171.007812 44.957031 177.929688 44.957031 185.09375 C 44.957031 192.257812 46.242188 199.175781 48.574219 204.574219 C 48.84375 205.199219 49.128906 205.796875 49.417969 206.367188 C 49.433594 206.394531 49.449219 206.425781 49.464844 206.457031 C 49.746094 207.007812 50.039062 207.53125 50.34375 208.03125 C 50.371094 208.074219 50.394531 208.121094 50.421875 208.164062 C 50.71875 208.648438 51.023438 209.105469 51.335938 209.539062 C 51.371094 209.589844 51.40625 209.640625 51.445312 209.691406 C 51.753906 210.113281 52.070312 210.507812 52.394531 210.878906 C 52.4375 210.929688 52.480469 210.980469 52.523438 211.03125 C 52.847656 211.394531 53.175781 211.730469 53.507812 212.042969 C 53.558594 212.089844 53.605469 212.136719 53.65625 212.179688 C 53.988281 212.484375 54.328125 212.761719 54.671875 213.015625 C 54.726562 213.054688 54.777344 213.09375 54.832031 213.128906 C 55.175781 213.375 55.527344 213.59375 55.878906 213.789062 C 55.933594 213.816406 55.988281 213.847656 56.042969 213.875 C 56.398438 214.0625 56.761719 214.222656 57.125 214.355469 C 57.148438 214.363281 57.171875 214.378906 57.199219 214.386719 C 56.609375 214.53125 56.019531 214.605469 55.433594 214.605469 C 47.386719 214.605469 40.839844 201.367188 40.839844 185.09375 C 40.839844 168.820312 47.386719 155.578125 55.433594 155.578125 Z M 53.34375 183.566406 C 53.320312 184.070312 53.308594 184.578125 53.308594 185.089844 C 53.308594 185.605469 53.320312 186.113281 53.34375 186.617188 C 53.351562 186.785156 53.367188 186.949219 53.375 187.117188 C 53.394531 187.449219 53.414062 187.78125 53.441406 188.105469 C 53.460938 188.296875 53.484375 188.484375 53.503906 188.675781 C 53.535156 188.96875 53.566406 189.261719 53.605469 189.546875 C 53.632812 189.75 53.667969 189.945312 53.699219 190.148438 C 53.738281 190.414062 53.777344 190.679688 53.828125 190.941406 C 53.863281 191.144531 53.90625 191.339844 53.949219 191.535156 C 54 191.785156 54.050781 192.035156 54.105469 192.277344 C 54.152344 192.476562 54.207031 192.667969 54.257812 192.859375 C 54.316406 193.09375 54.375 193.328125 54.441406 193.554688 C 54.496094 193.746094 54.558594 193.929688 54.617188 194.117188 C 54.6875 194.332031 54.753906 194.550781 54.828125 194.757812 C 54.890625 194.941406 54.960938 195.117188 55.03125 195.292969 C 55.105469 195.496094 55.183594 195.699219 55.265625 195.890625 C 55.335938 196.066406 55.414062 196.226562 55.488281 196.394531 C 55.574219 196.578125 55.660156 196.765625 55.746094 196.945312 C 55.828125 197.105469 55.910156 197.257812 55.996094 197.410156 C 56.089844 197.582031 56.179688 197.75 56.277344 197.910156 C 56.363281 198.058594 56.453125 198.199219 56.546875 198.335938 C 56.644531 198.488281 56.742188 198.640625 56.84375 198.785156 C 56.941406 198.917969 57.039062 199.042969 57.136719 199.167969 C 57.242188 199.304688 57.347656 199.433594 57.453125 199.558594 C 57.554688 199.675781 57.660156 199.789062 57.765625 199.894531 C 57.875 200.011719 57.984375 200.125 58.101562 200.230469 C 58.207031 200.332031 58.316406 200.425781 58.429688 200.515625 C 58.542969 200.613281 58.660156 200.707031 58.777344 200.792969 C 58.894531 200.875 59.007812 200.949219 59.125 201.023438 C 59.246094 201.097656 59.367188 201.171875 59.488281 201.234375 C 59.609375 201.300781 59.730469 201.355469 59.851562 201.410156 C 59.914062 201.4375 59.972656 201.476562 60.039062 201.5 C 59.769531 201.554688 59.5 201.582031 59.234375 201.582031 C 54.75 201.582031 51.105469 194.183594 51.105469 185.09375 C 51.105469 176 54.753906 168.601562 59.234375 168.601562 C 59.5 168.601562 59.769531 168.628906 60.039062 168.683594 C 59.972656 168.707031 59.910156 168.75 59.84375 168.777344 C 59.726562 168.828125 59.609375 168.882812 59.496094 168.945312 C 59.367188 169.011719 59.242188 169.085938 59.117188 169.164062 C 59.003906 169.238281 58.894531 169.308594 58.785156 169.390625 C 58.660156 169.476562 58.542969 169.574219 58.421875 169.671875 C 58.316406 169.761719 58.207031 169.851562 58.101562 169.949219 C 57.988281 170.058594 57.871094 170.175781 57.757812 170.292969 C 57.65625 170.398438 57.554688 170.507812 57.457031 170.621094 C 57.347656 170.75 57.238281 170.882812 57.132812 171.023438 C 57.035156 171.144531 56.941406 171.265625 56.847656 171.398438 C 56.742188 171.542969 56.640625 171.695312 56.542969 171.851562 C 56.453125 171.992188 56.363281 172.125 56.277344 172.269531 C 56.179688 172.433594 56.085938 172.605469 55.992188 172.777344 C 55.910156 172.929688 55.828125 173.078125 55.75 173.238281 C 55.660156 173.417969 55.570312 173.609375 55.484375 173.796875 C 55.410156 173.960938 55.335938 174.121094 55.265625 174.289062 C 55.183594 174.488281 55.105469 174.691406 55.027344 174.898438 C 54.960938 175.070312 54.890625 175.242188 54.828125 175.421875 C 54.753906 175.636719 54.683594 175.855469 54.617188 176.074219 C 54.558594 176.261719 54.496094 176.441406 54.441406 176.628906 C 54.375 176.859375 54.316406 177.09375 54.253906 177.328125 C 54.207031 177.519531 54.152344 177.710938 54.105469 177.90625 C 54.050781 178.148438 54 178.398438 53.949219 178.648438 C 53.910156 178.847656 53.863281 179.042969 53.828125 179.246094 C 53.78125 179.503906 53.742188 179.769531 53.699219 180.035156 C 53.667969 180.234375 53.632812 180.433594 53.605469 180.636719 C 53.566406 180.925781 53.535156 181.214844 53.503906 181.507812 C 53.484375 181.699219 53.460938 181.886719 53.441406 182.078125 C 53.414062 182.40625 53.394531 182.738281 53.375 183.070312 C 53.367188 183.234375 53.351562 183.398438 53.34375 183.566406 Z M 53.34375 183.566406 " fill-opacity="1" fill-rule="nonzero"/></g><path fill="#31479d" d="M 313.074219 250.914062 L 313.058594 250.921875 C 313.0625 250.917969 313.066406 250.917969 313.074219 250.914062 Z M 133.773438 228.171875 L 133.816406 228.28125 L 111.984375 236.738281 C 149.769531 249.394531 182.628906 255.773438 209.183594 258.753906 C 256.027344 264.019531 283.246094 258.722656 283.246094 258.722656 L 284.628906 258.363281 L 313.027344 250.929688 C 310.234375 251.667969 306.582031 252.25 301.867188 252.605469 C 268.261719 255.140625 193.542969 244.96875 133.773438 228.171875 Z M 100.21875 170.824219 C 93.988281 147.679688 81.121094 140.929688 79.921875 140.347656 C 79.902344 140.378906 79.875 140.40625 79.835938 140.410156 C 79.832031 140.410156 79.828125 140.417969 79.824219 140.417969 C 79.820312 140.417969 79.820312 140.417969 79.816406 140.417969 C 79.753906 140.414062 79.699219 140.359375 79.703125 140.292969 C 79.703125 140.292969 79.703125 140.289062 79.703125 140.289062 L 62.035156 138.914062 C 73.570312 140.519531 82.679688 159.851562 82.679688 183.480469 C 82.679688 208.160156 72.742188 228.171875 60.488281 228.171875 L 94.003906 229.496094 L 93.089844 223.8125 C 93.078125 223.75 93.125 223.6875 93.1875 223.675781 C 93.234375 223.667969 93.273438 223.695312 93.296875 223.730469 C 96.535156 221.546875 99.125 217.636719 100.902344 212.539062 L 100.847656 212.421875 L 100.957031 212.375 C 103.867188 203.902344 104.558594 192.210938 102.3125 179.722656 C 101.757812 176.636719 101.050781 173.664062 100.21875 170.824219 Z M 57.613281 214.273438 C 50.53125 212.121094 45.195312 199.589844 45.195312 185.089844 C 45.195312 170.59375 50.53125 158.0625 57.613281 155.910156 C 64.695312 158.0625 70.03125 170.59375 70.03125 185.089844 C 70.03125 199.589844 64.695312 212.121094 57.613281 214.273438 Z M 60.488281 201.632812 C 64.609375 200.402344 67.601562 193.445312 67.601562 185.089844 C 67.601562 176.738281 64.609375 169.78125 60.488281 168.550781 C 60.074219 168.425781 59.652344 168.363281 59.234375 168.363281 C 54.621094 168.363281 50.867188 175.867188 50.867188 185.089844 C 50.867188 194.316406 54.621094 201.820312 59.234375 201.820312 C 59.652344 201.820312 60.074219 201.757812 60.488281 201.632812 Z M 232.492188 294.808594 C 234.113281 294.761719 250.222656 294.265625 261.195312 292.53125 L 261.492188 289.210938 C 260.230469 289.441406 251.269531 290.960938 232.757812 291.355469 Z M 60.457031 168.789062 C 56.515625 170 53.546875 176.996094 53.546875 185.089844 C 53.546875 193.1875 56.515625 200.183594 60.457031 201.394531 C 64.398438 200.183594 67.363281 193.1875 67.363281 185.089844 C 67.363281 176.996094 64.398438 170 60.457031 168.789062 Z M 60.457031 168.789062 " fill-opacity="1" fill-rule="nonzero"/><g clip-path="url(#8c6b4aa940)"><path fill="#111111" d="M 91.839844 93.882812 C 81.441406 116.539062 80.058594 138.101562 79.949219 140.132812 C 79.945312 140.226562 79.941406 140.292969 79.941406 140.300781 C 79.941406 140.320312 79.929688 140.332031 79.921875 140.34375 C 79.902344 140.378906 79.875 140.402344 79.835938 140.410156 C 79.832031 140.410156 79.828125 140.417969 79.824219 140.417969 C 79.820312 140.417969 79.820312 140.417969 79.816406 140.417969 C 79.753906 140.414062 79.699219 140.359375 79.703125 140.292969 C 79.703125 140.292969 79.703125 140.289062 79.703125 140.289062 C 79.714844 139.992188 80.75 117.480469 91.625 93.789062 C 98.023438 79.851562 106.527344 68.234375 116.898438 59.269531 C 129.515625 48.359375 144.953125 41.378906 162.792969 38.472656 C 163.285156 38.394531 163.773438 38.304688 164.269531 38.230469 C 164.335938 38.21875 164.394531 38.265625 164.402344 38.328125 C 164.40625 38.335938 164.398438 38.339844 164.398438 38.347656 C 164.398438 38.402344 164.363281 38.457031 164.304688 38.464844 C 145.882812 41.207031 129.988281 48.265625 117.058594 59.445312 C 106.707031 68.390625 98.226562 79.976562 91.839844 93.882812 Z M 178.328125 188.964844 C 178.359375 188.964844 178.386719 188.953125 178.410156 188.933594 L 192.335938 176.03125 C 192.386719 175.988281 192.386719 175.914062 192.34375 175.863281 C 192.296875 175.816406 192.222656 175.8125 192.175781 175.859375 L 178.25 188.757812 C 178.199219 188.800781 178.199219 188.878906 178.242188 188.925781 C 178.265625 188.949219 178.296875 188.964844 178.328125 188.964844 Z M 264.496094 174.917969 C 264.445312 174.960938 264.445312 175.039062 264.488281 175.085938 C 264.511719 175.109375 264.542969 175.125 264.574219 175.125 C 264.605469 175.125 264.632812 175.113281 264.65625 175.09375 L 267.992188 172.003906 C 267.886719 171.992188 267.785156 171.980469 267.679688 171.96875 Z M 337.476562 172.605469 L 336.660156 175.507812 L 336.574219 175.511719 L 326.519531 175.863281 L 315.179688 236.054688 L 315.066406 236.03125 C 315.09375 236.050781 330.097656 246.394531 313.074219 250.914062 C 313.066406 250.917969 313.0625 250.917969 313.058594 250.921875 C 313.046875 250.921875 313.035156 250.925781 313.027344 250.929688 C 310.234375 251.667969 306.582031 252.25 301.867188 252.605469 C 268.261719 255.140625 193.542969 244.96875 133.773438 228.171875 L 133.816406 228.28125 L 111.984375 236.738281 L 111.746094 236.828125 L 111.699219 236.726562 L 100.902344 212.542969 L 100.847656 212.425781 L 100.957031 212.378906 L 100.957031 212.375 L 101.066406 212.328125 L 111.871094 236.527344 L 133.730469 228.058594 L 133.773438 228.164062 L 106.402344 145.285156 C 106.378906 145.28125 106.339844 145.273438 106.335938 145.269531 L 106.269531 145.257812 L 106.25 145.191406 L 97.210938 117.824219 L 97.1875 117.75 L 97.296875 117.710938 L 97.410156 117.675781 L 97.421875 117.703125 L 104.351562 138.691406 C 181.945312 157.976562 241.148438 166.175781 277.15625 169.652344 C 314.839844 173.292969 335.644531 172.671875 337.214844 172.617188 C 337.269531 172.613281 337.308594 172.613281 337.316406 172.613281 Z M 326.277344 175.863281 C 325.035156 175.832031 323.785156 175.796875 322.53125 175.753906 C 295.511719 174.898438 265.628906 171.867188 237.753906 168.195312 C 228.59375 166.988281 219.65625 165.710938 211.105469 164.421875 L 152.515625 218.695312 C 152.492188 218.714844 152.464844 218.726562 152.433594 218.726562 C 152.402344 218.726562 152.371094 218.710938 152.347656 218.6875 C 152.304688 218.640625 152.304688 218.5625 152.355469 218.519531 L 210.804688 164.375 C 200.492188 162.820312 190.75 161.242188 181.886719 159.738281 C 174.632812 158.511719 167.695312 157.289062 161.15625 156.101562 L 138.320312 176.804688 C 138.296875 176.828125 138.269531 176.835938 138.238281 176.835938 C 138.207031 176.835938 138.175781 176.824219 138.152344 176.800781 C 138.109375 176.75 138.109375 176.675781 138.160156 176.632812 L 160.863281 156.046875 C 139.03125 152.085938 121.796875 148.554688 112.921875 146.683594 L 137.289062 225.089844 C 137.289062 225.089844 160.101562 230.667969 188.097656 236.207031 L 213.917969 212.289062 C 213.964844 212.246094 214.039062 212.246094 214.085938 212.296875 C 214.128906 212.34375 214.128906 212.417969 214.078125 212.464844 L 188.386719 236.265625 C 209.070312 240.351562 232.542969 244.402344 251.730469 246.164062 L 316.125 186.511719 C 316.171875 186.46875 316.25 186.472656 316.292969 186.519531 C 316.335938 186.566406 316.335938 186.644531 316.285156 186.6875 L 252.046875 246.195312 C 252.980469 246.28125 253.90625 246.363281 254.816406 246.433594 C 255.863281 246.519531 256.875 246.601562 257.890625 246.683594 L 312.375 196.214844 C 312.421875 196.167969 312.496094 196.171875 312.542969 196.21875 C 312.585938 196.269531 312.582031 196.34375 312.535156 196.386719 L 258.210938 246.707031 C 300.703125 250.136719 315.066406 251.160156 315.066406 236.03125 L 314.949219 236.011719 Z M 337.160156 172.855469 C 335.132812 172.921875 314.355469 173.488281 277.132812 169.890625 C 241.136719 166.410156 181.96875 158.222656 104.4375 138.957031 L 106.449219 145.054688 C 106.671875 145.101562 107.457031 145.273438 108.722656 145.546875 L 112.777344 146.222656 L 112.84375 146.425781 C 115.980469 147.085938 120.195312 147.960938 125.296875 148.992188 C 134.597656 150.875 146.867188 153.269531 161.082031 155.847656 L 161.152344 155.785156 C 161.253906 155.800781 161.347656 155.820312 161.449219 155.835938 L 161.378906 155.902344 C 167.863281 157.078125 174.738281 158.289062 181.925781 159.507812 C 186.566406 160.292969 191.457031 161.097656 196.53125 161.914062 C 234.898438 168.0625 284.472656 174.621094 326.417969 175.628906 L 336.480469 175.277344 Z M 229.679688 207.167969 L 217.425781 218.519531 C 217.375 218.566406 217.375 218.640625 217.417969 218.6875 C 217.441406 218.710938 217.472656 218.726562 217.503906 218.726562 C 217.535156 218.726562 217.5625 218.714844 217.585938 218.695312 L 229.839844 207.34375 C 229.890625 207.296875 229.890625 207.222656 229.847656 207.175781 C 229.800781 207.125 229.726562 207.121094 229.679688 207.167969 Z M 164.492188 201.664062 C 164.445312 201.617188 164.371094 201.613281 164.324219 201.65625 L 150.398438 214.558594 C 150.347656 214.601562 150.34375 214.679688 150.390625 214.726562 C 150.414062 214.75 150.445312 214.765625 150.476562 214.765625 C 150.503906 214.765625 150.535156 214.753906 150.558594 214.734375 L 164.484375 201.832031 C 164.53125 201.789062 164.535156 201.714844 164.492188 201.664062 Z M 248.734375 180.042969 C 248.683594 180.085938 248.683594 180.160156 248.726562 180.210938 C 248.75 180.234375 248.78125 180.246094 248.8125 180.246094 C 248.84375 180.246094 248.871094 180.238281 248.894531 180.214844 L 258.898438 170.945312 C 258.796875 170.933594 258.695312 170.921875 258.589844 170.910156 Z M 60.488281 168.550781 C 64.609375 169.78125 67.601562 176.738281 67.601562 185.089844 C 67.601562 193.445312 64.609375 200.402344 60.488281 201.632812 C 60.074219 201.757812 59.652344 201.820312 59.234375 201.820312 C 54.621094 201.820312 50.867188 194.316406 50.867188 185.089844 C 50.867188 175.867188 54.621094 168.363281 59.234375 168.363281 C 59.652344 168.363281 60.074219 168.425781 60.488281 168.550781 Z M 60.039062 201.5 C 59.976562 201.476562 59.914062 201.4375 59.851562 201.410156 C 59.730469 201.355469 59.609375 201.300781 59.488281 201.234375 C 59.367188 201.167969 59.246094 201.097656 59.125 201.023438 C 59.007812 200.949219 58.894531 200.875 58.777344 200.789062 C 58.660156 200.703125 58.542969 200.613281 58.429688 200.515625 C 58.316406 200.425781 58.207031 200.332031 58.101562 200.230469 C 57.984375 200.125 57.875 200.011719 57.765625 199.894531 C 57.660156 199.785156 57.554688 199.675781 57.453125 199.558594 C 57.347656 199.433594 57.242188 199.300781 57.136719 199.167969 C 57.039062 199.042969 56.941406 198.917969 56.84375 198.785156 C 56.742188 198.640625 56.644531 198.488281 56.546875 198.335938 C 56.453125 198.195312 56.363281 198.058594 56.277344 197.910156 C 56.179688 197.75 56.089844 197.578125 55.996094 197.410156 C 55.914062 197.257812 55.828125 197.105469 55.746094 196.941406 C 55.660156 196.765625 55.574219 196.578125 55.488281 196.394531 C 55.414062 196.226562 55.335938 196.0625 55.265625 195.890625 C 55.183594 195.699219 55.105469 195.496094 55.03125 195.292969 C 54.960938 195.117188 54.890625 194.941406 54.828125 194.757812 C 54.753906 194.550781 54.6875 194.332031 54.617188 194.113281 C 54.558594 193.929688 54.496094 193.742188 54.441406 193.550781 C 54.375 193.324219 54.316406 193.089844 54.257812 192.859375 C 54.207031 192.664062 54.152344 192.476562 54.105469 192.277344 C 54.050781 192.035156 54 191.785156 53.949219 191.535156 C 53.90625 191.335938 53.863281 191.140625 53.828125 190.941406 C 53.777344 190.679688 53.738281 190.410156 53.699219 190.144531 C 53.667969 189.945312 53.632812 189.75 53.605469 189.546875 C 53.566406 189.261719 53.535156 188.96875 53.503906 188.675781 C 53.484375 188.484375 53.460938 188.296875 53.441406 188.105469 C 53.414062 187.78125 53.394531 187.449219 53.375 187.117188 C 53.367188 186.949219 53.351562 186.785156 53.34375 186.617188 C 53.320312 186.113281 53.308594 185.605469 53.308594 185.089844 C 53.308594 184.578125 53.320312 184.066406 53.34375 183.566406 C 53.351562 183.398438 53.367188 183.234375 53.375 183.066406 C 53.394531 182.734375 53.414062 182.402344 53.441406 182.074219 C 53.460938 181.882812 53.484375 181.695312 53.503906 181.503906 C 53.535156 181.210938 53.566406 180.917969 53.601562 180.632812 C 53.632812 180.429688 53.667969 180.230469 53.699219 180.027344 C 53.738281 179.765625 53.777344 179.5 53.828125 179.238281 C 53.863281 179.039062 53.90625 178.839844 53.949219 178.644531 C 54 178.394531 54.050781 178.144531 54.105469 177.902344 C 54.152344 177.703125 54.203125 177.515625 54.253906 177.324219 C 54.316406 177.089844 54.375 176.851562 54.441406 176.625 C 54.496094 176.433594 54.554688 176.253906 54.613281 176.070312 C 54.683594 175.851562 54.753906 175.628906 54.828125 175.417969 C 54.890625 175.238281 54.960938 175.066406 55.027344 174.890625 C 55.101562 174.6875 55.179688 174.480469 55.265625 174.285156 C 55.335938 174.117188 55.410156 173.957031 55.484375 173.792969 C 55.570312 173.601562 55.65625 173.414062 55.746094 173.234375 C 55.828125 173.074219 55.910156 172.925781 55.992188 172.773438 C 56.085938 172.601562 56.179688 172.429688 56.277344 172.265625 C 56.363281 172.121094 56.453125 171.984375 56.539062 171.847656 C 56.640625 171.691406 56.742188 171.539062 56.847656 171.390625 C 56.9375 171.261719 57.035156 171.140625 57.132812 171.015625 C 57.238281 170.878906 57.34375 170.746094 57.457031 170.617188 C 57.554688 170.503906 57.65625 170.394531 57.757812 170.289062 C 57.871094 170.171875 57.984375 170.054688 58.101562 169.945312 C 58.207031 169.847656 58.3125 169.757812 58.421875 169.667969 C 58.539062 169.570312 58.660156 169.472656 58.78125 169.382812 C 58.894531 169.304688 59.003906 169.230469 59.117188 169.160156 C 59.242188 169.082031 59.367188 169.007812 59.496094 168.941406 C 59.609375 168.878906 59.726562 168.824219 59.84375 168.773438 C 59.90625 168.742188 59.972656 168.703125 60.039062 168.679688 C 59.769531 168.625 59.5 168.597656 59.234375 168.597656 C 54.75 168.597656 51.105469 175.996094 51.105469 185.085938 C 51.105469 194.179688 54.75 201.578125 59.234375 201.578125 C 59.5 201.582031 59.769531 201.554688 60.039062 201.5 Z M 60.457031 168.789062 C 56.515625 170 53.546875 176.996094 53.546875 185.089844 C 53.546875 193.1875 56.515625 200.183594 60.457031 201.394531 C 64.398438 200.183594 67.363281 193.1875 67.363281 185.089844 C 67.363281 176.996094 64.398438 170 60.457031 168.789062 Z M 66.652344 165.609375 C 68.984375 171.007812 70.269531 177.925781 70.269531 185.089844 C 70.269531 192.253906 68.984375 199.171875 66.652344 204.574219 C 64.332031 209.9375 61.136719 213.46875 57.648438 214.511719 C 56.914062 214.730469 56.167969 214.839844 55.4375 214.839844 C 47.257812 214.839844 40.605469 201.496094 40.605469 185.09375 C 40.605469 168.6875 47.257812 155.34375 55.4375 155.34375 C 56.171875 155.34375 56.914062 155.453125 57.648438 155.671875 C 61.136719 156.714844 64.332031 160.242188 66.652344 165.609375 Z M 57.199219 214.386719 C 57.175781 214.378906 57.152344 214.363281 57.125 214.355469 C 56.761719 214.222656 56.402344 214.0625 56.042969 213.875 C 55.988281 213.847656 55.933594 213.820312 55.882812 213.789062 C 55.527344 213.59375 55.175781 213.375 54.832031 213.128906 C 54.78125 213.09375 54.726562 213.054688 54.671875 213.015625 C 54.328125 212.761719 53.992188 212.484375 53.65625 212.179688 C 53.609375 212.136719 53.558594 212.089844 53.507812 212.042969 C 53.175781 211.726562 52.847656 211.394531 52.527344 211.03125 C 52.480469 210.980469 52.4375 210.929688 52.394531 210.878906 C 52.070312 210.507812 51.753906 210.113281 51.445312 209.691406 C 51.410156 209.640625 51.375 209.589844 51.335938 209.539062 C 51.023438 209.105469 50.71875 208.648438 50.421875 208.164062 C 50.394531 208.121094 50.371094 208.074219 50.34375 208.03125 C 50.042969 207.53125 49.746094 207.007812 49.464844 206.457031 C 49.449219 206.425781 49.433594 206.398438 49.421875 206.367188 C 49.128906 205.792969 48.84375 205.199219 48.574219 204.574219 C 46.242188 199.175781 44.957031 192.257812 44.957031 185.09375 C 44.957031 177.929688 46.242188 171.007812 48.574219 165.609375 C 48.84375 164.984375 49.128906 164.390625 49.421875 163.816406 C 49.433594 163.789062 49.449219 163.757812 49.464844 163.730469 C 49.746094 163.179688 50.042969 162.65625 50.34375 162.152344 C 50.371094 162.109375 50.398438 162.066406 50.421875 162.023438 C 50.71875 161.539062 51.027344 161.078125 51.339844 160.644531 C 51.375 160.59375 51.410156 160.542969 51.445312 160.496094 C 51.753906 160.070312 52.074219 159.675781 52.398438 159.300781 C 52.441406 159.253906 52.484375 159.199219 52.527344 159.152344 C 52.847656 158.789062 53.175781 158.453125 53.511719 158.140625 C 53.558594 158.09375 53.609375 158.046875 53.65625 158.003906 C 53.992188 157.699219 54.328125 157.421875 54.675781 157.167969 C 54.726562 157.128906 54.78125 157.089844 54.832031 157.050781 C 55.175781 156.808594 55.527344 156.589844 55.878906 156.394531 C 55.933594 156.363281 55.992188 156.335938 56.046875 156.304688 C 56.402344 156.121094 56.761719 155.960938 57.121094 155.828125 C 57.148438 155.820312 57.171875 155.804688 57.199219 155.796875 C 56.613281 155.652344 56.019531 155.578125 55.4375 155.578125 C 47.390625 155.578125 40.839844 168.816406 40.839844 185.089844 C 40.839844 201.363281 47.390625 214.601562 55.4375 214.601562 C 56.019531 214.601562 56.613281 214.53125 57.199219 214.386719 Z M 57.613281 155.910156 C 50.53125 158.0625 45.195312 170.59375 45.195312 185.089844 C 45.195312 199.589844 50.53125 212.121094 57.613281 214.273438 C 64.695312 212.121094 70.03125 199.589844 70.03125 185.089844 C 70.03125 170.59375 64.695312 158.0625 57.613281 155.910156 Z M 267.925781 326.28125 C 267.921875 326.28125 267.921875 326.277344 267.917969 326.277344 C 253.289062 323.304688 239.328125 326.300781 230.195312 329.34375 C 221.140625 332.355469 214.929688 335.992188 213.886719 336.617188 L 209.414062 259.003906 C 209.410156 258.941406 209.351562 258.890625 209.289062 258.894531 C 209.242188 258.894531 209.210938 258.929688 209.195312 258.96875 C 209.1875 258.984375 209.175781 259 209.175781 259.019531 L 213.648438 336.605469 L 113.152344 275.367188 L 94.238281 229.484375 L 93.324219 223.773438 C 93.320312 223.757812 93.304688 223.742188 93.296875 223.730469 C 93.269531 223.695312 93.234375 223.667969 93.1875 223.675781 C 93.121094 223.6875 93.078125 223.746094 93.089844 223.8125 L 94.003906 229.496094 L 94.011719 229.546875 L 112.949219 275.496094 C 112.957031 275.519531 112.976562 275.539062 112.996094 275.550781 L 213.71875 336.925781 C 213.738281 336.9375 213.757812 336.941406 213.78125 336.941406 C 213.800781 336.941406 213.824219 336.9375 213.839844 336.925781 C 213.839844 336.925781 213.839844 336.925781 213.84375 336.925781 C 213.847656 336.921875 213.886719 336.898438 213.953125 336.859375 C 214.824219 336.328125 221.085938 332.625 230.277344 329.566406 C 239.347656 326.550781 253.199219 323.574219 267.726562 326.484375 C 267.773438 326.496094 267.824219 326.5 267.871094 326.511719 C 267.933594 326.527344 268 326.484375 268.011719 326.417969 C 268.023438 326.355469 267.984375 326.296875 267.925781 326.28125 Z M 232.363281 295.050781 C 232.332031 295.050781 232.296875 295.035156 232.277344 295.011719 C 232.253906 294.988281 232.242188 294.953125 232.242188 294.921875 L 232.527344 291.226562 C 232.53125 291.167969 232.582031 291.117188 232.640625 291.117188 C 252.640625 290.699219 261.511719 288.964844 261.597656 288.949219 C 261.632812 288.945312 261.675781 288.953125 261.699219 288.976562 C 261.730469 289 261.742188 289.039062 261.738281 289.074219 L 261.425781 292.644531 C 261.417969 292.699219 261.378906 292.742188 261.324219 292.75 C 249.800781 294.585938 232.539062 295.046875 232.367188 295.050781 C 232.363281 295.050781 232.363281 295.050781 232.363281 295.050781 Z M 232.492188 294.808594 C 234.113281 294.761719 250.222656 294.265625 261.195312 292.53125 L 261.492188 289.210938 C 260.230469 289.441406 251.269531 290.960938 232.757812 291.355469 Z M 78.1875 183.480469 C 78.1875 206.003906 69.058594 224.328125 57.84375 224.328125 C 52.480469 224.328125 47.601562 220.132812 43.960938 213.300781 C 39.988281 205.84375 37.5 195.238281 37.5 183.480469 C 37.5 171.726562 39.988281 161.121094 43.960938 153.664062 C 47.597656 146.832031 52.480469 142.636719 57.84375 142.636719 C 69.058594 142.636719 78.1875 160.957031 78.1875 183.480469 Z M 77.949219 183.480469 C 77.949219 161.089844 68.929688 142.875 57.84375 142.875 C 46.757812 142.875 37.738281 161.089844 37.738281 183.480469 C 37.738281 205.875 46.757812 224.089844 57.84375 224.089844 C 68.929688 224.089844 77.949219 205.875 77.949219 183.480469 Z M 77.949219 183.480469 " fill-opacity="1" fill-rule="nonzero"/></g></svg>