<svg xmlns="http://www.w3.org/2000/svg" xmlns:xlink="http://www.w3.org/1999/xlink" width="300" zoomAndPan="magnify" viewBox="0 0 224.87999 225" height="300" preserveAspectRatio="xMidYMid meet" version="1.0"><defs><clipPath id="1471aa251f"><path d="M 15.050781 0.0585938 L 209.949219 0.0585938 L 209.949219 224.9375 L 15.050781 224.9375 Z M 15.050781 0.0585938 " clip-rule="nonzero"/></clipPath></defs><g clip-path="url(#1471aa251f)"><path fill="#8a008a" d="M 71.34375 160.351562 L 83.785156 156.265625 L 75.292969 144.621094 L 65.609375 121.839844 L 73.339844 98.464844 L 76.398438 123.371094 L 91.933594 141.460938 L 99.90625 145.652344 L 110.84375 108.382812 L 110.84375 62.511719 L 76.917969 0.238281 L 98.238281 0.238281 L 119.324219 57.921875 L 106.132812 21.84375 L 98.234375 0.238281 L 115.300781 0.238281 L 122.074219 33.78125 L 128.261719 67.328125 L 122.1875 112.628906 L 107.976562 144.625 L 140.234375 122.621094 L 156.773438 97.296875 L 151.933594 123.125 L 140.941406 139.976562 L 130.960938 145.929688 L 155.765625 148.347656 L 181.679688 136.949219 L 193.777344 126.351562 L 184.90625 146.230469 L 160.707031 162.476562 L 139.832031 165.402344 L 162.21875 179.628906 L 184.804688 183.867188 L 209.707031 180.636719 L 175.527344 201.21875 L 144.875 197.992188 L 128.496094 187.585938 L 132.640625 201.394531 L 141.992188 211.050781 L 129.324219 208.261719 L 119.75 198.679688 L 111.621094 184.945312 L 114.925781 206.523438 L 124.878906 224.78125 L 107.835938 213.011719 L 100.902344 196.640625 L 99.621094 187.285156 L 83.332031 203.734375 L 56.871094 209.390625 L 31.386719 198.527344 L 62.523438 195.28125 L 79.335938 179.515625 L 53.023438 180.496094 L 26.03125 164.652344 L 15.328125 145.109375 L 44.203125 158.308594 Z M 71.34375 160.351562 " fill-opacity="1" fill-rule="nonzero"/><path fill="#111111" d="M 15.191406 145.035156 C 15.175781 145.0625 15.167969 145.085938 15.167969 145.117188 C 15.171875 145.128906 15.171875 145.140625 15.175781 145.152344 C 15.179688 145.164062 15.175781 145.179688 15.183594 145.1875 L 25.890625 164.730469 C 25.890625 164.734375 25.898438 164.738281 25.902344 164.742188 C 25.90625 164.75 25.914062 164.753906 25.921875 164.761719 C 25.929688 164.773438 25.9375 164.785156 25.949219 164.792969 L 52.941406 180.636719 C 52.953125 180.640625 52.964844 180.640625 52.972656 180.644531 C 52.984375 180.648438 52.992188 180.652344 53.003906 180.652344 C 53.011719 180.652344 53.019531 180.660156 53.03125 180.660156 L 78.910156 179.695312 L 62.453125 195.128906 L 31.367188 198.367188 C 31.347656 198.367188 31.332031 198.382812 31.316406 198.390625 C 31.304688 198.398438 31.289062 198.398438 31.277344 198.410156 C 31.25 198.433594 31.230469 198.464844 31.226562 198.503906 C 31.226562 198.503906 31.222656 198.503906 31.222656 198.507812 C 31.222656 198.511719 31.226562 198.511719 31.226562 198.519531 C 31.226562 198.554688 31.234375 198.585938 31.253906 198.617188 C 31.261719 198.628906 31.269531 198.632812 31.28125 198.640625 C 31.292969 198.652344 31.304688 198.671875 31.320312 198.675781 L 56.804688 209.542969 C 56.816406 209.546875 56.824219 209.542969 56.835938 209.542969 C 56.847656 209.546875 56.859375 209.546875 56.871094 209.546875 C 56.882812 209.546875 56.894531 209.554688 56.902344 209.550781 L 83.367188 203.890625 C 83.378906 203.890625 83.386719 203.878906 83.394531 203.875 C 83.40625 203.871094 83.414062 203.867188 83.421875 203.863281 C 83.429688 203.855469 83.441406 203.855469 83.449219 203.847656 L 99.503906 187.632812 L 100.738281 196.664062 C 100.742188 196.675781 100.742188 196.6875 100.75 196.699219 C 100.75 196.699219 100.75 196.703125 100.75 196.703125 L 107.6875 213.078125 C 107.699219 213.105469 107.71875 213.128906 107.742188 213.148438 L 124.785156 224.914062 C 124.800781 224.925781 124.816406 224.925781 124.832031 224.929688 C 124.847656 224.933594 124.855469 224.9375 124.871094 224.941406 C 124.902344 224.941406 124.929688 224.929688 124.953125 224.917969 C 124.960938 224.914062 124.972656 224.914062 124.976562 224.910156 C 124.980469 224.910156 124.980469 224.90625 124.980469 224.90625 C 124.980469 224.90625 124.984375 224.90625 124.984375 224.902344 C 125.015625 224.878906 125.03125 224.84375 125.035156 224.804688 C 125.039062 224.796875 125.03125 224.789062 125.03125 224.777344 C 125.03125 224.753906 125.03125 224.730469 125.019531 224.707031 L 115.082031 206.472656 L 111.90625 185.75 L 119.625 198.773438 C 119.628906 198.777344 119.628906 198.78125 119.632812 198.785156 L 119.636719 198.792969 L 129.210938 208.375 C 129.214844 208.378906 129.222656 208.378906 129.226562 208.382812 C 129.234375 208.390625 129.242188 208.390625 129.253906 208.398438 C 129.265625 208.40625 129.277344 208.414062 129.289062 208.417969 L 141.957031 211.210938 C 141.972656 211.214844 141.988281 211.207031 142.003906 211.203125 C 142.019531 211.203125 142.03125 211.207031 142.046875 211.199219 C 142.078125 211.1875 142.105469 211.167969 142.125 211.136719 C 142.125 211.136719 142.128906 211.136719 142.132812 211.132812 C 142.132812 211.128906 142.132812 211.128906 142.132812 211.128906 C 142.152344 211.09375 142.15625 211.054688 142.148438 211.019531 C 142.144531 211.007812 142.136719 211 142.132812 210.988281 C 142.125 210.972656 142.121094 210.953125 142.109375 210.9375 L 132.785156 201.308594 L 128.777344 187.957031 L 144.789062 198.128906 C 144.792969 198.128906 144.796875 198.128906 144.800781 198.132812 C 144.816406 198.140625 144.835938 198.148438 144.859375 198.152344 L 175.511719 201.382812 C 175.527344 201.382812 175.546875 201.375 175.566406 201.367188 C 175.574219 201.367188 175.585938 201.371094 175.59375 201.367188 C 175.597656 201.367188 175.597656 201.363281 175.601562 201.363281 C 175.605469 201.359375 175.609375 201.359375 175.613281 201.359375 L 209.792969 180.777344 C 209.808594 180.765625 209.816406 180.75 209.824219 180.734375 C 209.835938 180.722656 209.847656 180.714844 209.851562 180.703125 C 209.863281 180.675781 209.867188 180.648438 209.863281 180.617188 C 209.859375 180.605469 209.867188 180.601562 209.863281 180.589844 C 209.863281 180.589844 209.863281 180.589844 209.863281 180.585938 C 209.859375 180.585938 209.863281 180.585938 209.863281 180.582031 C 209.859375 180.570312 209.847656 180.566406 209.839844 180.558594 C 209.828125 180.539062 209.816406 180.515625 209.796875 180.503906 C 209.785156 180.496094 209.773438 180.496094 209.757812 180.488281 C 209.742188 180.484375 209.726562 180.472656 209.707031 180.472656 C 209.703125 180.472656 209.699219 180.476562 209.691406 180.476562 C 209.691406 180.476562 209.6875 180.476562 209.6875 180.476562 L 184.808594 183.699219 L 162.277344 179.472656 L 140.289062 165.5 L 160.726562 162.636719 C 160.726562 162.636719 160.726562 162.632812 160.730469 162.632812 C 160.730469 162.632812 160.734375 162.632812 160.738281 162.632812 C 160.757812 162.628906 160.777344 162.621094 160.792969 162.609375 L 184.992188 146.367188 C 185.019531 146.347656 185.039062 146.324219 185.050781 146.296875 L 193.925781 126.421875 C 193.933594 126.402344 193.925781 126.382812 193.929688 126.363281 C 193.929688 126.351562 193.933594 126.339844 193.933594 126.324219 C 193.925781 126.292969 193.910156 126.265625 193.886719 126.242188 C 193.878906 126.238281 193.882812 126.230469 193.875 126.226562 C 193.871094 126.226562 193.871094 126.222656 193.871094 126.222656 C 193.859375 126.214844 193.847656 126.21875 193.835938 126.210938 C 193.816406 126.203125 193.796875 126.191406 193.773438 126.191406 C 193.773438 126.191406 193.773438 126.195312 193.773438 126.195312 C 193.734375 126.195312 193.699219 126.207031 193.667969 126.234375 L 181.589844 136.808594 L 155.734375 148.183594 L 131.464844 145.816406 L 141.023438 140.113281 C 141.039062 140.105469 141.046875 140.09375 141.058594 140.082031 C 141.0625 140.078125 141.066406 140.074219 141.070312 140.070312 C 141.070312 140.070312 141.074219 140.066406 141.074219 140.0625 L 152.066406 123.214844 C 152.074219 123.203125 152.074219 123.195312 152.078125 123.183594 C 152.082031 123.179688 152.082031 123.175781 152.082031 123.167969 C 152.085938 123.164062 152.085938 123.160156 152.089844 123.15625 L 156.929688 97.324219 C 156.933594 97.304688 156.921875 97.289062 156.921875 97.269531 C 156.917969 97.257812 156.917969 97.242188 156.914062 97.230469 C 156.898438 97.199219 156.875 97.175781 156.847656 97.160156 C 156.839844 97.15625 156.839844 97.148438 156.835938 97.148438 C 156.835938 97.148438 156.832031 97.148438 156.832031 97.148438 C 156.832031 97.144531 156.832031 97.144531 156.832031 97.144531 C 156.8125 97.136719 156.789062 97.132812 156.769531 97.132812 C 156.742188 97.132812 156.714844 97.140625 156.6875 97.15625 C 156.679688 97.160156 156.675781 97.167969 156.667969 97.175781 C 156.65625 97.1875 156.644531 97.195312 156.636719 97.207031 L 140.117188 122.503906 L 108.351562 144.175781 L 122.335938 112.691406 C 122.339844 112.683594 122.335938 112.675781 122.339844 112.667969 C 122.339844 112.660156 122.347656 112.65625 122.347656 112.648438 L 128.421875 67.347656 C 128.421875 67.339844 128.417969 67.335938 128.417969 67.332031 C 128.417969 67.320312 128.421875 67.308594 128.421875 67.296875 L 122.230469 33.753906 C 122.230469 33.75 122.230469 33.75 122.230469 33.75 L 115.457031 0.207031 C 115.441406 0.128906 115.375 0.0742188 115.296875 0.0742188 L 76.917969 0.0742188 C 76.859375 0.0742188 76.808594 0.105469 76.777344 0.15625 C 76.75 0.203125 76.746094 0.265625 76.773438 0.316406 L 110.679688 62.554688 L 110.679688 108.359375 L 99.804688 145.417969 L 92.035156 141.335938 L 76.550781 123.304688 L 73.496094 98.449219 C 73.492188 98.421875 73.480469 98.40625 73.46875 98.386719 C 73.460938 98.375 73.460938 98.363281 73.453125 98.355469 C 73.425781 98.328125 73.390625 98.308594 73.351562 98.304688 C 73.351562 98.304688 73.347656 98.304688 73.34375 98.304688 C 73.339844 98.304688 73.339844 98.304688 73.335938 98.304688 C 73.296875 98.304688 73.261719 98.320312 73.234375 98.347656 C 73.222656 98.355469 73.21875 98.363281 73.210938 98.375 C 73.203125 98.386719 73.1875 98.398438 73.183594 98.417969 L 65.453125 121.792969 C 65.449219 121.804688 65.453125 121.816406 65.453125 121.828125 C 65.449219 121.847656 65.449219 121.863281 65.453125 121.878906 C 65.457031 121.886719 65.453125 121.898438 65.457031 121.90625 L 75.140625 144.679688 C 75.144531 144.6875 75.144531 144.691406 75.148438 144.695312 L 75.15625 144.71875 L 83.519531 156.183594 L 71.324219 160.1875 L 44.242188 158.148438 L 15.390625 144.964844 C 15.367188 144.953125 15.34375 144.953125 15.320312 144.957031 C 15.3125 144.957031 15.304688 144.953125 15.296875 144.953125 C 15.261719 144.957031 15.230469 144.972656 15.203125 145 C 15.203125 145.003906 15.203125 145.007812 15.199219 145.007812 C 15.199219 145.011719 15.195312 145.011719 15.195312 145.011719 C 15.191406 145.019531 15.195312 145.027344 15.191406 145.035156 Z M 91.722656 141.464844 L 86.136719 148.320312 L 72.070312 127.019531 L 76.375 123.59375 Z M 72.03125 126.632812 L 73.402344 100.328125 L 76.226562 123.300781 Z M 71.707031 126.652344 L 65.796875 121.785156 L 73.113281 99.664062 Z M 71.730469 127.09375 L 85.714844 148.273438 L 75.414062 144.496094 L 66.015625 122.386719 Z M 86.054688 148.742188 L 93.1875 152.804688 L 83.847656 156.074219 L 75.730469 144.957031 Z M 106.457031 146.027344 L 104.023438 148.65625 L 118.007812 107.792969 L 122 112.652344 L 107.839844 144.535156 Z M 139.378906 123.402344 L 124.136719 141.792969 L 104.191406 148.949219 L 108.085938 144.746094 Z M 140.847656 139.824219 L 124.808594 141.699219 L 143.644531 127.503906 L 151.46875 123.542969 Z M 179.898438 137.910156 L 152.265625 155.8125 L 155.882812 148.472656 Z M 184.8125 146.042969 L 179.546875 144.871094 L 193.085938 127.503906 Z M 160.707031 162.277344 L 152.195312 156.304688 L 179.277344 145.144531 L 184.5 146.308594 Z M 179.128906 144.855469 L 153.410156 155.457031 L 181.394531 137.324219 Z M 179.667969 144.191406 L 181.820312 137.039062 L 192.601562 127.601562 Z M 151.765625 156.09375 L 140.199219 154.835938 L 155.429688 148.660156 Z M 150.75 156.308594 L 113.84375 163.167969 L 104.113281 156.410156 L 139.527344 155.089844 Z M 207.691406 181.0625 L 172.5625 191.40625 L 184.859375 184.023438 Z M 175.601562 200.988281 L 171.613281 192.023438 L 208.542969 181.148438 Z M 170.679688 191.917969 L 144.992188 197.796875 L 141.554688 184.996094 Z M 142.015625 184.773438 L 162.152344 179.8125 L 171 191.660156 Z M 171.300781 192.105469 L 175.265625 201.03125 L 145.859375 197.933594 Z M 171.433594 191.707031 L 162.597656 179.863281 L 184.355469 183.945312 Z M 141.363281 184.597656 L 114.65625 163.796875 L 161.636719 179.605469 Z M 113.171875 169.652344 L 111.488281 184.660156 L 107.40625 181.835938 L 107.40625 174.292969 L 113.820312 164.226562 Z M 114.832031 206.695312 L 123.828125 223.195312 L 110.972656 206.953125 Z M 110.691406 207.121094 L 124.078125 224.035156 L 108.042969 212.957031 Z M 107.84375 212.609375 L 101.078125 196.640625 L 107.164062 182.519531 L 110.488281 206.789062 Z M 107.324219 173.816406 L 103.859375 156.628906 L 113.710938 163.46875 L 113.851562 163.578125 Z M 32.5625 198.851562 L 64.160156 203.199219 L 56.84375 209.203125 Z M 92.957031 162.328125 L 79.355469 179.238281 L 73.039062 169.179688 Z M 72.921875 168.878906 L 71.539062 160.527344 L 92.636719 162.09375 Z M 93.375 162.324219 L 97.246094 173.949219 L 79.792969 179.210938 Z M 97.453125 173.554688 L 93.628906 162.066406 L 103.328125 156.617188 Z M 103.460938 156.171875 L 94.085938 161.4375 L 103.460938 149.785156 Z M 97.074219 174.339844 L 86.871094 190.070312 L 79.597656 179.605469 Z M 64.652344 202.84375 L 62.722656 195.410156 L 85.917969 190.71875 Z M 64.332031 202.894531 L 32.734375 198.550781 L 62.402344 195.457031 Z M 64.640625 203.222656 L 86.621094 190.691406 L 83.203125 203.59375 L 57.488281 209.09375 Z M 87.023438 190.429688 L 97.359375 174.496094 L 99.445312 187.230469 L 83.644531 203.1875 Z M 99.601562 186.167969 L 97.617188 174.070312 L 103.261719 157.804688 Z M 104.621094 156.066406 L 130.714844 146.320312 L 139.167969 154.777344 Z M 103.785156 149.441406 L 123.136719 142.496094 L 103.785156 155.957031 Z M 125.242188 140.964844 L 140.226562 122.890625 L 143.335938 127.332031 Z M 143.523438 127.039062 L 140.433594 122.617188 L 155.832031 99.03125 Z M 117.792969 107.324219 L 117.71875 107.332031 L 111.003906 108.199219 L 111.003906 62.609375 L 119.15625 58.199219 Z M 110.910156 62.292969 L 94.054688 31.351562 L 106.058594 22.105469 L 119.125 57.847656 Z M 110.96875 108.53125 L 117.710938 107.660156 L 103.554688 149.027344 L 100.117188 145.589844 C 100.109375 145.582031 100.101562 145.578125 100.097656 145.574219 Z M 83.835938 156.421875 C 83.839844 156.421875 83.839844 156.421875 83.839844 156.421875 L 103.140625 149.667969 L 93.363281 161.824219 L 72.171875 160.25 Z M 72.585938 168.84375 L 44.605469 158.503906 L 71.207031 160.503906 Z M 43.523438 166.792969 L 52.484375 179.992188 L 26.773438 164.898438 Z M 43.941406 166.828125 L 72.261719 169.210938 L 53.074219 180.28125 Z M 43.777344 166.488281 L 43.777344 158.542969 L 71.617188 168.832031 Z M 43.453125 158.308594 L 43.453125 166.3125 L 16.582031 145.863281 L 43.523438 158.175781 C 43.480469 158.207031 43.453125 158.257812 43.453125 158.308594 Z M 43.050781 166.414062 L 26.132812 164.5 L 15.832031 145.703125 Z M 53.671875 180.308594 L 72.734375 169.308594 L 79.050781 179.363281 Z M 79.3125 179.761719 L 86.601562 190.25 L 63.050781 195.011719 Z M 99.785156 187.285156 L 103.65625 157.261719 L 107.082031 174.261719 L 107.082031 181.886719 L 100.984375 196.042969 Z M 114.738281 206.375 L 110.796875 206.640625 L 107.453125 182.265625 L 111.46875 185.039062 Z M 111.785156 184.910156 L 113.417969 170.34375 L 120.300781 188.152344 L 119.625 198.148438 Z M 132.605469 201.589844 L 141.066406 210.324219 L 128.851562 203.246094 Z M 141.007812 210.667969 L 129.46875 208.125 L 128.710938 203.539062 Z M 128.339844 203.28125 L 129.085938 207.789062 L 119.917969 198.621094 L 120.585938 188.707031 Z M 120.570312 187.960938 L 113.828125 170.507812 L 128.164062 187.445312 Z M 132.445312 201.304688 L 128.566406 203.019531 L 120.722656 188.273438 L 128.378906 187.757812 Z M 128.605469 187.464844 L 113.5 169.617188 L 114.191406 163.84375 L 141.183594 184.871094 L 144.609375 197.628906 Z M 161.003906 179.050781 L 115.105469 163.605469 L 139.78125 165.558594 Z M 139.828125 165.238281 L 115.042969 163.273438 L 151.820312 156.4375 L 160.277344 162.371094 Z M 155.09375 148.449219 L 139.582031 154.738281 L 130.941406 146.089844 C 130.941406 146.089844 130.941406 146.089844 130.945312 146.089844 Z M 130.878906 145.789062 C 130.816406 145.824219 130.785156 145.894531 130.800781 145.964844 C 130.804688 145.972656 130.8125 145.980469 130.816406 145.988281 C 130.78125 145.972656 130.738281 145.964844 130.699219 145.980469 L 104.773438 155.664062 L 124.292969 142.085938 L 140.207031 140.226562 Z M 151.789062 123.015625 L 143.886719 127.019531 L 156.351562 98.652344 Z M 122.078125 112.238281 L 118.113281 107.410156 L 119.476562 58.316406 L 121.90625 60.875 L 128.09375 67.382812 Z M 128.003906 66.820312 L 125.066406 63.726562 L 119.464844 57.835938 L 106.472656 22.300781 L 117.238281 30.359375 L 121.925781 33.875 Z M 115.167969 0.398438 L 121.832031 33.398438 L 106.269531 21.742188 L 98.46875 0.398438 Z M 98.125 0.398438 L 105.941406 21.785156 L 93.898438 31.0625 L 77.191406 0.398438 Z M 99.734375 145.980469 L 103.3125 149.261719 L 94.777344 152.25 L 93.59375 152.664062 L 86.367188 148.550781 L 91.976562 141.667969 L 99.710938 145.734375 L 99.6875 145.816406 C 99.671875 145.875 99.6875 145.941406 99.734375 145.980469 Z M 99.734375 145.980469 " fill-opacity="1" fill-rule="nonzero"/></g></svg>