<svg xmlns="http://www.w3.org/2000/svg" xmlns:xlink="http://www.w3.org/1999/xlink" width="1080" zoomAndPan="magnify" viewBox="0 0 810 1439.999935" height="1920" preserveAspectRatio="xMidYMid meet" version="1.0"><defs><clipPath id="d081fdf611"><path d="M 17.070312 141.710938 L 792.570312 141.710938 L 792.570312 1298.210938 L 17.070312 1298.210938 Z M 17.070312 141.710938 " clip-rule="nonzero"/></clipPath><clipPath id="a272e1e2f2"><path d="M 17.070312 210 L 705 210 L 705 1280 L 17.070312 1280 Z M 17.070312 210 " clip-rule="nonzero"/></clipPath><clipPath id="04b1a84ffb"><path d="M 20 220 L 792.570312 220 L 792.570312 1298.210938 L 20 1298.210938 Z M 20 220 " clip-rule="nonzero"/></clipPath><clipPath id="ab264f677c"><path d="M 17.070312 203 L 748 203 L 748 1293 L 17.070312 1293 Z M 17.070312 203 " clip-rule="nonzero"/></clipPath><clipPath id="bf09a88370"><path d="M 27 217 L 762 217 L 762 1298.210938 L 27 1298.210938 Z M 27 217 " clip-rule="nonzero"/></clipPath></defs><g clip-path="url(#d081fdf611)"><path fill="#101010" d="M 771.0625 141.710938 L 165.710938 141.710938 L 152.792969 203.417969 L 24.660156 203.417969 C 20.578125 203.417969 17.269531 206.730469 17.269531 210.816406 L 17.269531 237.242188 C 17.269531 239.703125 18.707031 241.804688 20.773438 242.816406 L 37.542969 1163.757812 C 36.335938 1165.46875 35.609375 1167.546875 35.609375 1169.800781 L 35.609375 1191.386719 C 35.609375 1197.015625 40.167969 1201.574219 45.792969 1201.574219 L 158.921875 1201.574219 L 159.953125 1298.210938 L 301.84375 1298.210938 L 318.984375 1293.066406 L 326.457031 1298.210938 L 701.398438 1298.210938 L 701.398438 1298.203125 L 730.023438 1286.113281 L 792.472656 220.496094 M 61.429688 243.46875 L 148.636719 243.46875 L 150.484375 415.539062 L 138.3125 415.539062 C 132.011719 415.539062 126.902344 420.652344 126.902344 426.957031 C 126.902344 433.265625 132.011719 438.375 138.3125 438.375 L 150.730469 438.375 L 150.898438 453.78125 L 139.441406 453.78125 C 133.136719 453.78125 128.027344 458.894531 128.027344 465.199219 C 128.027344 471.503906 133.136719 476.617188 139.441406 476.617188 L 151.136719 476.617188 L 151.285156 490.429688 L 140.601562 490.429688 C 134.300781 490.429688 129.1875 495.539062 129.1875 501.847656 C 129.1875 508.152344 134.300781 513.265625 140.601562 513.265625 L 151.53125 513.265625 L 152.1875 574.449219 L 137.597656 589.449219 C 135.152344 591.886719 133.804688 595.21875 133.867188 598.671875 L 140.019531 944.730469 C 140.085938 948.292969 141.640625 951.667969 144.316406 954.027344 L 156.378906 965.175781 L 156.71875 996.898438 L 150.503906 996.898438 C 144.804688 996.898438 140.183594 1001.523438 140.183594 1007.222656 C 140.183594 1012.925781 144.804688 1017.550781 150.503906 1017.550781 L 156.941406 1017.550781 L 157.089844 1031.476562 L 150.949219 1031.476562 C 145.25 1031.476562 140.628906 1036.101562 140.628906 1041.804688 C 140.628906 1047.507812 145.25 1052.128906 150.949219 1052.128906 L 157.3125 1052.128906 L 157.445312 1064.617188 L 152 1064.617188 C 146.300781 1064.617188 141.679688 1069.242188 141.679688 1074.945312 C 141.679688 1080.644531 146.300781 1085.269531 152 1085.269531 L 157.667969 1085.269531 L 158.464844 1159.296875 L 78.105469 1159.296875 Z M 61.429688 243.46875 " fill-opacity="1" fill-rule="nonzero"/></g><g clip-path="url(#a272e1e2f2)"><path fill="#ef529c" d="M 217.398438 469.332031 L 213.484375 473.332031 C 211.828125 471.917969 210.273438 470.40625 208.878906 468.753906 C 203.183594 462.015625 199.761719 453.40625 199.761719 444.019531 C 199.761719 432.273438 205.140625 421.761719 213.613281 414.601562 L 220.03125 422.246094 C 211.933594 427.867188 206.664062 436.765625 206.664062 446.800781 C 206.664062 455.703125 210.816406 463.710938 217.398438 469.332031 Z M 264.503906 475.074219 C 259.148438 479.03125 252.753906 481.703125 245.769531 482.660156 C 252.753906 481.707031 259.148438 479.03125 264.503906 475.074219 Z M 244.8125 476.503906 L 243.933594 470.847656 C 242.675781 471.019531 241.398438 471.136719 240.085938 471.136719 C 236.710938 471.136719 233.496094 470.53125 230.527344 469.464844 L 228.332031 474.8125 C 231.984375 476.113281 235.9375 476.851562 240.082031 476.851562 C 241.695312 476.851562 243.265625 476.710938 244.8125 476.503906 Z M 245.769531 482.660156 L 244.921875 477.210938 C 243.339844 477.425781 241.734375 477.570312 240.085938 477.570312 C 235.84375 477.570312 231.796875 476.8125 228.0625 475.476562 L 225.96875 480.578125 C 230.371094 482.175781 235.117188 483.09375 240.09375 483.09375 C 240.222656 483.09375 240.34375 483.074219 240.472656 483.074219 C 242.273438 483.058594 244.035156 482.898438 245.769531 482.660156 Z M 239.648438 1143.394531 C 243.214844 1143.394531 246.613281 1144.023438 249.765625 1145.117188 L 253.105469 1136.851562 C 248.972656 1135.339844 244.492188 1134.464844 239.773438 1134.464844 C 238.023438 1134.464844 236.316406 1134.617188 234.632812 1134.839844 L 235.929688 1143.640625 C 237.148438 1143.492188 238.386719 1143.394531 239.648438 1143.394531 Z M 216.046875 412.707031 C 218.265625 411.109375 220.648438 409.726562 223.183594 408.585938 C 220.648438 409.722656 218.265625 411.109375 216.046875 412.707031 Z M 239.648438 1149.78125 C 238.703125 1149.78125 237.773438 1149.855469 236.855469 1149.964844 L 239.777344 1169.84375 L 247.351562 1151.097656 C 244.953125 1150.257812 242.363281 1149.78125 239.648438 1149.78125 Z M 217.808594 1169.839844 C 217.808594 1175.597656 220.476562 1180.78125 224.71875 1184.441406 L 239.773438 1169.839844 L 225.96875 1154.226562 C 221 1157.90625 217.808594 1163.535156 217.808594 1169.839844 Z M 253.121094 1136.8125 L 253.109375 1136.851562 C 254.136719 1137.226562 255.164062 1137.613281 256.144531 1138.070312 C 255.15625 1137.617188 254.15625 1137.1875 253.121094 1136.8125 Z M 234.632812 1134.835938 C 234.589844 1134.839844 234.550781 1134.851562 234.511719 1134.859375 C 234.554688 1134.851562 234.59375 1134.847656 234.636719 1134.839844 Z M 213.660156 446.800781 C 213.660156 438.835938 217.855469 431.773438 224.300781 427.332031 L 220.496094 422.792969 C 212.550781 428.285156 207.378906 436.984375 207.378906 446.800781 C 207.378906 455.503906 211.449219 463.328125 217.902344 468.820312 L 222.074219 464.558594 C 216.910156 460.113281 213.660156 453.804688 213.660156 446.800781 Z M 266.515625 446.800781 C 266.515625 454.453125 262.652344 461.28125 256.632812 465.746094 L 260.457031 470.273438 C 267.964844 464.761719 272.796875 456.296875 272.796875 446.800781 C 272.796875 437.542969 268.210938 429.257812 261.023438 423.738281 L 256.960938 428.089844 C 262.789062 432.558594 266.515625 439.285156 266.515625 446.800781 Z M 214.378906 446.800781 C 214.378906 453.605469 217.546875 459.730469 222.574219 464.042969 L 240.09375 446.144531 L 224.765625 427.882812 C 218.476562 432.191406 214.378906 439.058594 214.378906 446.800781 Z M 250.734375 418.417969 C 247.390625 417.355469 243.820312 416.75 240.085938 416.75 C 238.710938 416.75 237.363281 416.855469 236.03125 417.007812 L 236.820312 422.675781 C 237.894531 422.550781 238.976562 422.46875 240.085938 422.46875 C 243.09375 422.46875 245.96875 422.953125 248.664062 423.808594 Z M 261.972656 411.226562 C 259.742188 409.828125 257.359375 408.640625 254.851562 407.6875 C 257.359375 408.640625 259.742188 409.832031 261.972656 411.226562 Z M 240.085938 416.03125 C 243.910156 416.03125 247.566406 416.65625 250.992188 417.746094 L 254.851562 407.683594 C 250.273438 405.9375 245.308594 404.949219 240.09375 404.949219 C 238.160156 404.949219 236.273438 405.128906 234.414062 405.382812 L 235.933594 416.292969 C 237.296875 416.136719 238.679688 416.03125 240.085938 416.03125 Z M 240.085938 423.1875 C 239.011719 423.1875 237.960938 423.265625 236.921875 423.382812 L 240.09375 446.144531 L 248.40625 424.480469 C 245.792969 423.65625 243.003906 423.1875 240.085938 423.1875 Z M 261.496094 1169.839844 C 261.496094 1163.976562 258.722656 1158.707031 254.339844 1155.035156 L 239.777344 1169.839844 L 253.53125 1185.320312 C 258.390625 1181.636719 261.496094 1176.066406 261.496094 1169.839844 Z M 225.945312 407.472656 C 228.640625 406.492188 231.472656 405.785156 234.410156 405.382812 C 231.472656 405.785156 228.640625 406.492188 225.945312 407.472656 Z M 264.507812 475.074219 C 274.167969 467.9375 280.429688 456.699219 280.429688 444.019531 C 280.429688 433.042969 275.742188 423.136719 268.214844 416.039062 L 261.515625 423.210938 C 268.84375 428.863281 273.515625 437.335938 273.515625 446.800781 C 273.515625 456.519531 268.585938 465.179688 260.921875 470.824219 Z M 265.796875 446.800781 C 265.796875 439.492188 262.160156 432.949219 256.46875 428.613281 L 240.097656 446.144531 L 256.171875 465.195312 C 262.03125 460.867188 265.796875 454.234375 265.796875 446.800781 Z M 243.824219 470.140625 L 240.097656 446.144531 L 230.804688 468.796875 C 233.691406 469.832031 236.816406 470.417969 240.09375 470.417969 C 241.359375 470.417969 242.601562 470.304688 243.824219 470.140625 Z M 516.480469 1006.917969 C 601.003906 1006.917969 669.523438 1068.144531 669.523438 1143.667969 C 669.523438 1176.347656 656.675781 1206.335938 635.277344 1229.855469 C 606.15625 1260.328125 562.890625 1279.699219 514.621094 1279.699219 C 498.964844 1279.699219 483.851562 1277.632812 469.558594 1273.84375 C 407.996094 1256.140625 363.441406 1204.5625 363.441406 1143.667969 C 363.441406 1068.144531 431.957031 1006.917969 516.480469 1006.917969 Z M 516.480469 1016.632812 C 439.015625 1016.632812 375.992188 1072.964844 375.992188 1142.207031 C 375.992188 1211.445312 439.015625 1267.777344 516.480469 1267.777344 C 593.949219 1267.777344 656.972656 1211.445312 656.972656 1142.207031 C 656.972656 1072.964844 593.949219 1016.632812 516.480469 1016.632812 Z M 516.480469 1017.351562 C 593.546875 1017.351562 656.253906 1073.363281 656.253906 1142.207031 C 656.253906 1211.050781 593.550781 1267.058594 516.480469 1267.058594 C 439.410156 1267.058594 376.710938 1211.050781 376.710938 1142.207031 C 376.710938 1073.363281 439.410156 1017.351562 516.480469 1017.351562 Z M 516.480469 1023.546875 C 443.28125 1023.546875 383.730469 1076.777344 383.730469 1142.207031 C 383.730469 1207.632812 443.28125 1260.863281 516.480469 1260.863281 C 589.679688 1260.863281 649.230469 1207.632812 649.230469 1142.207031 C 649.230469 1076.777344 589.679688 1023.546875 516.480469 1023.546875 Z M 516.480469 1024.265625 C 589.285156 1024.265625 648.511719 1077.175781 648.511719 1142.207031 C 648.511719 1207.234375 589.285156 1260.144531 516.480469 1260.144531 C 443.675781 1260.144531 384.449219 1207.234375 384.449219 1142.207031 C 384.449219 1077.175781 443.675781 1024.265625 516.480469 1024.265625 Z M 517.300781 1028.742188 C 451.6875 1028.742188 398.496094 1076.277344 398.496094 1134.917969 C 398.496094 1193.554688 451.6875 1241.089844 517.300781 1241.089844 C 582.914062 1241.089844 636.101562 1193.554688 636.101562 1134.917969 C 636.101562 1076.277344 582.914062 1028.742188 517.300781 1028.742188 Z M 273.035156 1250.121094 C 273.035156 1233.828125 257.894531 1220.621094 239.214844 1220.621094 C 220.539062 1220.621094 205.398438 1233.828125 205.398438 1250.121094 C 205.398438 1266.414062 220.539062 1279.621094 239.214844 1279.621094 C 257.890625 1279.621094 273.035156 1266.414062 273.035156 1250.121094 Z M 424.78125 889.277344 L 428.75 702.632812 L 521.5625 702.632812 L 514.542969 889.640625 L 514.542969 889.277344 Z M 473.007812 752.777344 C 484.195312 752.777344 493.296875 743.671875 493.296875 732.476562 C 493.296875 721.28125 484.195312 712.175781 473.007812 712.175781 C 461.816406 712.175781 452.714844 721.28125 452.714844 732.476562 C 452.714844 743.671875 461.816406 752.777344 473.007812 752.777344 Z M 476.773438 814.816406 C 476.964844 814.816406 477.128906 814.660156 477.132812 814.46875 L 478.152344 783.117188 C 478.152344 783.113281 478.152344 783.109375 478.152344 783.105469 C 478.152344 783.011719 478.117188 782.921875 478.054688 782.855469 C 477.988281 782.785156 477.890625 782.746094 477.792969 782.746094 L 462.179688 782.746094 C 461.984375 782.746094 461.828125 782.898438 461.820312 783.097656 L 461.15625 814.453125 C 461.128906 814.519531 461.191406 814.640625 461.261719 814.710938 C 461.328125 814.78125 461.421875 814.820312 461.515625 814.820312 L 476.773438 814.820312 Z M 469.988281 876.496094 C 480.535156 876.496094 489.117188 868.628906 489.117188 858.960938 C 489.117188 849.292969 480.535156 841.425781 469.988281 841.425781 C 459.441406 841.425781 450.859375 849.292969 450.859375 858.960938 C 450.859375 868.628906 459.441406 876.496094 469.988281 876.496094 Z M 17.273438 237.242188 C 17.273438 239.703125 18.710938 241.804688 20.777344 242.816406 C 21.601562 243.21875 22.511719 243.464844 23.492188 243.464844 L 148.636719 243.464844 L 148.429688 224.273438 L 148.425781 224.273438 L 148.429688 224.25 L 148.425781 223.816406 L 148.519531 223.816406 L 149.691406 218.207031 L 24.667969 218.207031 C 20.582031 218.207031 17.273438 214.894531 17.273438 210.8125 Z M 244.910156 1201.199219 L 244.050781 1195.949219 C 242.613281 1196.152344 241.148438 1196.292969 239.652344 1196.292969 C 235.941406 1196.292969 232.40625 1195.621094 229.152344 1194.4375 L 227 1199.414062 C 230.980469 1200.785156 235.277344 1201.570312 239.777344 1201.570312 C 239.894531 1201.570312 240.007812 1201.554688 240.121094 1201.550781 C 241.746094 1201.539062 243.335938 1201.40625 244.910156 1201.199219 Z M 200.203125 311.59375 C 200.203125 333.074219 218.160156 350.492188 240.316406 350.492188 C 262.472656 350.492188 280.429688 333.074219 280.429688 311.59375 C 280.429688 290.109375 262.472656 272.695312 240.316406 272.695312 C 218.160156 272.695312 200.203125 290.109375 200.203125 311.59375 Z M 540.160156 302.597656 C 630.699219 302.597656 704.09375 375.015625 704.09375 464.351562 C 704.09375 522.414062 673.070312 573.304688 626.503906 601.839844 C 600.933594 616.773438 571.136719 625.378906 539.332031 625.378906 C 519.558594 625.378906 500.574219 622.023438 482.882812 615.929688 C 420.597656 593.003906 376.230469 533.796875 376.230469 464.351562 C 376.230469 375.015625 449.625 302.597656 540.160156 302.597656 Z M 540.160156 314.152344 C 457.195312 314.152344 389.699219 380.753906 389.699219 462.617188 C 389.699219 544.480469 457.195312 611.082031 540.160156 611.082031 C 623.128906 611.082031 690.625 544.480469 690.625 462.617188 C 690.625 380.753906 623.128906 314.152344 540.160156 314.152344 Z M 540.160156 314.871094 C 622.726562 314.871094 689.90625 381.148438 689.90625 462.617188 C 689.90625 544.082031 622.730469 610.363281 540.160156 610.363281 C 457.59375 610.363281 390.417969 544.082031 390.417969 462.617188 C 390.417969 381.148438 457.59375 314.871094 540.160156 314.871094 Z M 540.160156 322.328125 C 461.769531 322.328125 397.988281 385.265625 397.988281 462.617188 C 397.988281 539.96875 461.765625 602.898438 540.160156 602.898438 C 618.558594 602.898438 682.332031 539.96875 682.332031 462.617188 C 682.332031 385.265625 618.554688 322.328125 540.160156 322.328125 Z M 540.160156 323.046875 C 618.160156 323.046875 681.617188 385.660156 681.617188 462.617188 C 681.617188 539.574219 618.160156 602.179688 540.164062 602.179688 C 462.164062 602.179688 398.707031 539.574219 398.707031 462.617188 C 398.707031 385.660156 462.164062 323.046875 540.160156 323.046875 Z M 541.035156 328.40625 C 470.753906 328.40625 413.777344 384.632812 413.777344 453.988281 C 413.777344 523.347656 470.753906 579.574219 541.035156 579.574219 C 611.320312 579.574219 668.292969 523.347656 668.292969 453.988281 C 668.292969 384.632812 611.320312 328.40625 541.035156 328.40625 Z M 239.648438 1195.574219 C 241.109375 1195.574219 242.53125 1195.4375 243.933594 1195.238281 L 243.128906 1190.347656 C 241.992188 1190.511719 240.835938 1190.621094 239.648438 1190.621094 C 236.742188 1190.621094 233.976562 1190.097656 231.425781 1189.167969 L 229.4375 1193.777344 C 232.601562 1194.921875 236.042969 1195.574219 239.648438 1195.574219 Z M 46.109375 1180.300781 C 40.3125 1180.300781 35.613281 1175.597656 35.613281 1169.796875 L 35.613281 1191.382812 C 35.613281 1197.007812 40.171875 1201.570312 45.796875 1201.570312 L 158.921875 1201.570312 L 158.695312 1180.300781 Z M 243.015625 1189.636719 L 239.773438 1169.839844 L 231.707031 1188.507812 C 234.171875 1189.398438 236.84375 1189.898438 239.648438 1189.898438 C 240.796875 1189.902344 241.914062 1189.796875 243.015625 1189.636719 Z M 262.519531 1141.808594 C 263.453125 1142.496094 264.335938 1143.238281 265.191406 1144.003906 L 265.203125 1143.988281 C 264.351562 1143.21875 263.453125 1142.492188 262.519531 1141.808594 Z M 249.496094 1145.78125 C 246.425781 1144.71875 243.117188 1144.109375 239.648438 1144.109375 C 238.417969 1144.109375 237.21875 1144.207031 236.03125 1144.347656 L 236.753906 1149.25 C 237.703125 1149.136719 238.667969 1149.058594 239.648438 1149.058594 C 242.457031 1149.058594 245.136719 1149.554688 247.617188 1150.421875 Z M 217.089844 1169.839844 C 217.089844 1163.320312 220.375 1157.496094 225.492188 1153.683594 L 222.085938 1149.828125 C 215.722656 1154.550781 211.644531 1161.761719 211.644531 1169.839844 C 211.644531 1177.214844 215.058594 1183.855469 220.484375 1188.554688 L 224.203125 1184.945312 C 219.832031 1181.152344 217.089844 1175.792969 217.089844 1169.839844 Z M 262.214844 1169.839844 C 262.214844 1176.277344 259.015625 1182.042969 254.011719 1185.855469 L 257.433594 1189.707031 C 263.675781 1184.984375 267.660156 1177.832031 267.660156 1169.839844 C 267.660156 1162.308594 264.101562 1155.546875 258.46875 1150.835938 L 254.839844 1154.523438 C 259.355469 1158.324219 262.214844 1163.777344 262.214844 1169.839844 Z M 215.707031 1193.1875 L 219.964844 1189.054688 C 214.414062 1184.230469 210.921875 1177.414062 210.921875 1169.839844 C 210.921875 1161.546875 215.09375 1154.140625 221.605469 1149.289062 L 215.820312 1142.746094 C 208.15625 1148.898438 203.292969 1157.921875 203.292969 1168.011719 C 203.292969 1176.074219 206.386719 1183.46875 211.539062 1189.253906 C 212.804688 1190.675781 214.210938 1191.976562 215.707031 1193.1875 Z M 276.257812 1168.019531 C 276.257812 1158.589844 272.003906 1150.09375 265.191406 1144.003906 L 258.972656 1150.324219 C 264.734375 1155.164062 268.378906 1162.113281 268.378906 1169.84375 C 268.378906 1178.050781 264.300781 1185.394531 257.90625 1190.25 L 261.84375 1194.671875 C 270.589844 1188.550781 276.257812 1178.910156 276.257812 1168.019531 Z M 218.019531 1141.128906 C 220.027344 1139.753906 222.183594 1138.566406 224.476562 1137.585938 C 222.183594 1138.5625 220.027344 1139.753906 218.019531 1141.128906 Z M 261.84375 1194.671875 C 261.730469 1194.75 261.613281 1194.824219 261.5 1194.902344 C 261.617188 1194.824219 261.742188 1194.761719 261.855469 1194.683594 Z M 261.84375 1194.671875 " fill-opacity="1" fill-rule="nonzero"/></g><g clip-path="url(#04b1a84ffb)"><path fill="#8d2c91" d="M 71.152344 1175.46875 L 44.753906 1175.46875 C 40.871094 1175.46875 37.707031 1172.355469 37.632812 1168.472656 L 37.546875 1163.753906 L 20.773438 242.816406 C 21.597656 243.222656 22.511719 243.46875 23.492188 243.46875 L 27.316406 243.46875 C 27.316406 243.472656 27.316406 243.476562 27.316406 243.484375 L 43.742188 1167.429688 C 43.75 1167.828125 44.078125 1168.144531 44.472656 1168.140625 C 44.753906 1168.132812 44.949219 1167.945312 45.0625 1167.703125 C 45.179688 1167.949219 45.382812 1168.140625 45.675781 1168.140625 C 46.070312 1168.132812 46.382812 1167.8125 46.382812 1167.421875 C 46.382812 1167.417969 46.382812 1167.410156 46.382812 1167.410156 L 29.957031 243.464844 L 39.679688 243.464844 C 39.679688 243.46875 39.679688 243.472656 39.679688 243.480469 L 56.378906 1167.429688 C 56.382812 1167.828125 56.714844 1168.144531 57.105469 1168.140625 C 57.390625 1168.132812 57.585938 1167.945312 57.695312 1167.703125 C 57.8125 1167.949219 58.019531 1168.144531 58.308594 1168.140625 C 58.703125 1168.132812 59.015625 1167.8125 59.015625 1167.421875 C 59.015625 1167.417969 59.015625 1167.410156 59.015625 1167.410156 L 42.320312 243.464844 L 51.824219 243.464844 C 51.824219 243.46875 51.824219 243.472656 51.824219 243.480469 L 69.027344 1167.429688 C 69.03125 1167.828125 69.363281 1168.144531 69.757812 1168.136719 C 70.039062 1168.128906 70.234375 1167.941406 70.347656 1167.703125 C 70.464844 1167.945312 70.671875 1168.140625 70.960938 1168.136719 C 71.355469 1168.128906 71.667969 1167.808594 71.667969 1167.417969 C 71.667969 1167.414062 71.667969 1167.410156 71.667969 1167.402344 L 54.464844 243.460938 L 61.433594 243.460938 L 78.113281 1159.292969 L 78.277344 1168.210938 C 78.347656 1172.195312 75.136719 1175.46875 71.152344 1175.46875 Z M 702.136719 1297.890625 L 730.03125 1286.113281 L 792.476562 220.492188 L 762.617188 224.5 Z M 701.402344 1298.199219 Z M 356.167969 655.144531 C 356.238281 648.332031 361.046875 642.683594 367.433594 641.273438 L 715.785156 641.273438 C 722.441406 642.769531 727.3125 648.875 726.96875 655.984375 C 726.96875 656.007812 726.96875 656.027344 726.96875 656.050781 L 712.277344 935.355469 C 711.875 942.992188 705.570312 948.976562 697.929688 948.976562 L 367.660156 948.976562 C 365.503906 948.976562 363.472656 948.46875 361.640625 947.617188 C 356.675781 945.3125 353.234375 940.289062 353.292969 934.449219 Z M 388.21875 818.867188 C 388.351562 818.925781 388.507812 818.898438 388.613281 818.796875 L 408.875 799.035156 C 408.949219 798.96875 408.984375 798.871094 408.984375 798.78125 C 408.984375 798.695312 408.953125 798.609375 408.898438 798.542969 L 389.324219 776.484375 C 389.226562 776.371094 389.070312 776.335938 388.929688 776.386719 C 388.789062 776.4375 388.695312 776.566406 388.691406 776.71875 L 388 818.535156 C 388.035156 818.667969 388.089844 818.8125 388.21875 818.867188 Z M 521.464844 915.96875 C 526.03125 915.96875 529.78125 912.359375 529.960938 907.796875 L 538.195312 697.546875 C 538.382812 692.71875 534.523438 688.707031 529.699219 688.707031 L 428.765625 688.707031 C 424.144531 688.707031 420.371094 692.402344 420.269531 697.023438 L 415.605469 907.273438 C 415.5 912.042969 419.335938 915.96875 424.101562 915.96875 Z M 708.046875 657.402344 C 707.253906 657.359375 706.574219 657.96875 706.535156 658.761719 L 691.457031 938.640625 C 691.367188 939.414062 692.019531 940.109375 692.816406 940.15625 C 693.515625 940.191406 694.097656 939.710938 694.261719 939.058594 C 694.378906 939.265625 694.546875 939.421875 694.800781 939.433594 C 695.199219 939.457031 695.535156 939.152344 695.558594 938.757812 L 710.632812 658.875 C 710.632812 658.863281 710.632812 658.847656 710.632812 658.835938 C 710.632812 658.457031 710.335938 658.140625 709.957031 658.117188 C 709.683594 658.101562 709.476562 658.273438 709.34375 658.492188 C 709.1875 657.902344 708.691406 657.4375 708.046875 657.402344 Z M 665.785156 854.148438 L 672.855469 744.808594 C 672.871094 744.585938 672.875 744.367188 672.875 744.144531 C 672.875 741.671875 671.984375 739.3125 670.328125 737.445312 C 668.527344 735.410156 666.042969 734.203125 663.328125 734.050781 L 661.78125 733.960938 C 659.070312 733.808594 656.460938 734.722656 654.445312 736.535156 C 652.425781 738.351562 651.234375 740.847656 651.097656 743.558594 L 645.574219 852.988281 C 645.566406 853.160156 645.566406 853.332031 645.566406 853.5 C 645.566406 858.820312 649.746094 863.300781 655.109375 863.609375 C 660.636719 863.917969 665.425781 859.675781 665.785156 854.148438 Z M 631.207031 657.402344 C 630.414062 657.359375 629.734375 657.96875 629.695312 658.761719 L 614.617188 938.640625 C 614.535156 939.414062 615.179688 940.109375 615.972656 940.15625 C 616.675781 940.191406 617.257812 939.710938 617.417969 939.054688 C 617.535156 939.261719 617.707031 939.421875 617.960938 939.433594 C 618.355469 939.457031 618.695312 939.152344 618.71875 938.757812 L 633.792969 658.875 C 633.792969 658.863281 633.792969 658.847656 633.792969 658.835938 C 633.792969 658.457031 633.492188 658.140625 633.113281 658.117188 C 632.839844 658.101562 632.636719 658.273438 632.503906 658.492188 C 632.347656 657.902344 631.851562 657.4375 631.207031 657.402344 Z M 616.53125 657.402344 C 615.742188 657.363281 615.066406 657.972656 615.027344 658.769531 L 601.253906 938.652344 C 601.128906 939.4375 601.824219 940.117188 602.617188 940.15625 C 603.316406 940.191406 603.890625 939.710938 604.054688 939.0625 C 604.171875 939.265625 604.347656 939.425781 604.597656 939.4375 C 605 939.457031 605.335938 939.152344 605.355469 938.757812 L 619.128906 658.878906 C 619.128906 658.863281 619.128906 658.851562 619.128906 658.84375 C 619.128906 658.460938 618.832031 658.144531 618.449219 658.125 C 618.171875 658.109375 617.96875 658.28125 617.835938 658.5 C 617.683594 657.898438 617.179688 657.4375 616.53125 657.402344 Z M 602.28125 657.402344 C 601.488281 657.367188 600.8125 657.980469 600.78125 658.773438 L 587.894531 938.652344 C 587.808594 939.433594 588.46875 940.121094 589.261719 940.15625 C 589.957031 940.1875 590.535156 939.707031 590.695312 939.054688 C 590.8125 939.261719 590.984375 939.425781 591.242188 939.433594 C 591.636719 939.453125 591.972656 939.148438 591.992188 938.75 L 604.878906 658.871094 C 604.878906 658.859375 604.878906 658.847656 604.878906 658.835938 C 604.878906 658.453125 604.578125 658.136719 604.195312 658.117188 C 603.921875 658.105469 603.71875 658.277344 603.585938 658.492188 C 603.433594 657.898438 602.929688 657.433594 602.28125 657.402344 Z M 588.023438 657.402344 C 587.230469 657.367188 586.558594 657.984375 586.523438 658.777344 L 574.527344 938.660156 C 574.558594 939.410156 575.105469 940.121094 575.902344 940.15625 C 576.585938 940.1875 577.148438 939.722656 577.324219 939.09375 C 577.445312 939.289062 577.628906 939.429688 577.878906 939.441406 C 578.273438 939.457031 578.609375 939.148438 578.628906 938.753906 L 590.628906 658.875 C 590.628906 658.863281 590.628906 658.851562 590.628906 658.84375 C 590.628906 658.457031 590.328125 658.140625 589.941406 658.125 C 589.667969 658.113281 589.46875 658.28125 589.335938 658.503906 C 589.183594 657.898438 588.675781 657.429688 588.023438 657.402344 Z M 573.765625 657.402344 C 572.976562 657.371094 572.308594 657.988281 572.273438 658.78125 L 561.160156 938.660156 C 561.15625 939.488281 561.75 940.121094 562.542969 940.15625 C 563.234375 940.183594 563.804688 939.703125 563.96875 939.054688 C 564.085938 939.261719 564.261719 939.425781 564.511719 939.4375 C 564.910156 939.453125 565.242188 939.144531 565.261719 938.75 L 576.375 658.867188 C 576.375 658.859375 576.375 658.847656 576.375 658.839844 C 576.375 658.453125 576.070312 658.136719 575.683594 658.121094 C 575.410156 658.113281 575.210938 658.28125 575.082031 658.5 C 574.929688 657.894531 574.421875 657.425781 573.765625 657.402344 Z M 559.515625 657.402344 C 558.722656 657.371094 558.054688 657.992188 558.023438 658.785156 L 547.796875 938.664062 C 547.816406 939.371094 548.386719 940.125 549.179688 940.15625 C 549.863281 940.179688 550.421875 939.714844 550.59375 939.085938 C 550.714844 939.285156 550.894531 939.429688 551.148438 939.4375 C 551.546875 939.453125 551.878906 939.140625 551.894531 938.746094 L 562.117188 658.863281 C 562.117188 658.855469 562.117188 658.847656 562.117188 658.839844 C 562.117188 658.453125 561.816406 658.132812 561.425781 658.121094 C 561.15625 658.113281 560.957031 658.277344 560.828125 658.492188 C 560.679688 657.894531 560.167969 657.425781 559.515625 657.402344 Z M 239.214844 1284.503906 C 217.445312 1284.503906 199.800781 1269.109375 199.800781 1250.121094 C 199.800781 1231.132812 217.445312 1215.738281 239.214844 1215.738281 C 260.984375 1215.738281 278.632812 1231.132812 278.632812 1250.121094 C 278.632812 1269.105469 260.984375 1284.503906 239.214844 1284.503906 Z M 239.214844 1279.621094 C 257.894531 1279.621094 273.035156 1266.414062 273.035156 1250.121094 C 273.035156 1233.828125 257.894531 1220.621094 239.214844 1220.621094 C 220.539062 1220.621094 205.398438 1233.828125 205.398438 1250.121094 C 205.398438 1266.414062 220.539062 1279.621094 239.214844 1279.621094 Z M 278.632812 1166.21875 L 278.574219 1156.535156 C 278.574219 1137.015625 261.484375 1121.1875 240.398438 1121.1875 C 220.027344 1121.1875 203.433594 1135.976562 202.332031 1154.585938 L 202.28125 1154.589844 L 202.28125 1155.464844 C 202.269531 1155.824219 202.226562 1156.175781 202.226562 1156.535156 C 202.226562 1156.898438 202.269531 1157.25 202.28125 1157.609375 L 202.28125 1166.222656 C 202.28125 1146.699219 219.375 1130.875 240.457031 1130.875 C 261.539062 1130.875 278.628906 1146.695312 278.632812 1166.21875 Z M 283.058594 441.929688 L 282.992188 430.652344 C 282.992188 407.921875 264.09375 389.496094 240.785156 389.496094 C 218.261719 389.496094 199.914062 406.710938 198.695312 428.382812 L 198.644531 428.386719 L 198.644531 429.40625 C 198.632812 429.824219 198.582031 430.234375 198.582031 430.652344 C 198.582031 431.074219 198.632812 431.484375 198.644531 431.902344 L 198.644531 441.929688 C 198.644531 419.199219 217.539062 400.773438 240.851562 400.773438 C 264.160156 400.773438 283.058594 419.199219 283.058594 441.929688 Z M 192.546875 311.59375 C 192.546875 286.011719 213.933594 265.277344 240.316406 265.277344 C 266.695312 265.277344 288.085938 286.011719 288.085938 311.59375 C 288.085938 337.171875 266.699219 357.910156 240.316406 357.910156 C 213.933594 357.910156 192.546875 337.171875 192.546875 311.59375 Z M 200.203125 311.59375 C 200.203125 333.074219 218.160156 350.492188 240.316406 350.492188 C 262.472656 350.492188 280.429688 333.074219 280.429688 311.59375 C 280.429688 290.109375 262.472656 272.695312 240.316406 272.695312 C 218.160156 272.695312 200.203125 290.109375 200.203125 311.59375 Z M 469.988281 875.777344 C 459.835938 875.777344 451.578125 868.230469 451.578125 858.960938 C 451.578125 849.691406 459.835938 842.144531 469.988281 842.144531 C 480.140625 842.144531 488.398438 849.691406 488.398438 858.960938 C 488.398438 868.230469 480.140625 875.777344 469.988281 875.777344 Z M 469.988281 864.640625 C 474.671875 864.640625 478.464844 861.167969 478.464844 856.882812 C 478.464844 852.601562 474.671875 849.128906 469.988281 849.128906 C 465.308594 849.128906 461.511719 852.601562 461.511719 856.882812 C 461.511719 861.167969 465.308594 864.640625 469.988281 864.640625 Z M 473.007812 752.058594 C 462.214844 752.058594 453.433594 743.273438 453.433594 732.476562 C 453.433594 721.679688 462.214844 712.894531 473.007812 712.894531 C 483.796875 712.894531 492.578125 721.679688 492.578125 732.476562 C 492.578125 743.273438 483.796875 752.058594 473.007812 752.058594 Z M 473.007812 738.589844 C 477.976562 738.589844 482.003906 734.558594 482.003906 729.585938 C 482.003906 724.613281 477.976562 720.582031 473.007812 720.582031 C 468.039062 720.582031 464.007812 724.613281 464.007812 729.585938 C 464.007812 734.558594 468.039062 738.589844 473.007812 738.589844 Z M 239.617188 1034.234375 C 231.578125 1034.234375 225.03125 1040.066406 224.597656 1047.40625 L 224.578125 1047.410156 L 224.578125 1047.757812 C 224.574219 1047.898438 224.554688 1048.035156 224.554688 1048.179688 C 224.554688 1048.324219 224.574219 1048.460938 224.578125 1048.601562 L 224.578125 1052 C 224.578125 1044.296875 231.320312 1038.054688 239.640625 1038.054688 C 247.960938 1038.054688 254.703125 1044.300781 254.703125 1052 L 254.679688 1048.179688 C 254.679688 1040.476562 247.933594 1034.234375 239.617188 1034.234375 Z M 224.976562 1052.707031 C 224.976562 1056.285156 226.535156 1059.519531 229.042969 1061.902344 C 231.664062 1064.390625 235.3125 1065.945312 239.371094 1065.945312 C 239.417969 1065.945312 239.460938 1065.933594 239.507812 1065.933594 C 247.390625 1065.867188 253.761719 1059.976562 253.761719 1052.707031 C 253.761719 1045.394531 247.320312 1039.46875 239.371094 1039.46875 C 231.421875 1039.46875 224.976562 1045.398438 224.976562 1052.707031 Z M 239.339844 983.960938 C 231.300781 983.960938 224.753906 989.796875 224.320312 997.136719 L 224.300781 997.140625 L 224.300781 997.484375 C 224.292969 997.625 224.277344 997.761719 224.277344 997.90625 C 224.277344 998.050781 224.292969 998.1875 224.300781 998.332031 L 224.300781 1001.730469 C 224.300781 994.027344 231.042969 987.78125 239.363281 987.78125 C 247.679688 987.78125 254.425781 994.027344 254.425781 1001.730469 L 254.402344 997.90625 C 254.402344 990.207031 247.660156 983.960938 239.339844 983.960938 Z M 224.699219 1002.4375 C 224.699219 1006.015625 226.257812 1009.25 228.765625 1011.632812 C 231.382812 1014.121094 235.035156 1015.675781 239.09375 1015.675781 C 239.136719 1015.675781 239.179688 1015.667969 239.226562 1015.667969 C 247.113281 1015.597656 253.484375 1009.707031 253.484375 1002.4375 C 253.484375 995.125 247.042969 989.199219 239.09375 989.199219 C 231.144531 989.199219 224.699219 995.125 224.699219 1002.4375 Z M 239.488281 591.863281 C 230.8125 591.863281 223.746094 598.160156 223.273438 606.085938 L 223.253906 606.089844 L 223.253906 606.464844 C 223.246094 606.617188 223.226562 606.765625 223.226562 606.921875 C 223.226562 607.074219 223.246094 607.226562 223.253906 607.378906 L 223.253906 611.046875 C 223.253906 602.730469 230.535156 595.992188 239.511719 595.992188 C 248.492188 595.992188 255.769531 602.730469 255.769531 611.046875 L 255.742188 606.921875 C 255.746094 598.605469 248.46875 591.863281 239.488281 591.863281 Z M 223.683594 611.808594 C 223.683594 615.679688 225.375 619.179688 228.089844 621.75 C 228.289062 621.9375 228.507812 622.097656 228.714844 622.273438 C 229.039062 622.550781 229.390625 622.800781 229.738281 623.054688 C 230.328125 623.472656 230.949219 623.847656 231.601562 624.191406 C 231.71875 624.253906 231.839844 624.3125 231.957031 624.367188 C 232.726562 624.746094 233.523438 625.058594 234.363281 625.3125 C 234.585938 625.378906 234.808594 625.445312 235.03125 625.503906 C 235.625 625.65625 236.21875 625.789062 236.835938 625.875 C 237.523438 625.972656 238.214844 626.054688 238.929688 626.066406 C 239.027344 626.070312 239.125 626.097656 239.222656 626.097656 C 239.257812 626.097656 239.289062 626.085938 239.320312 626.085938 C 247.859375 626.039062 254.765625 619.667969 254.765625 611.804688 C 254.765625 603.914062 247.804688 597.515625 239.226562 597.515625 C 230.648438 597.515625 223.683594 603.914062 223.683594 611.808594 Z M 239.484375 534.929688 C 230.160156 534.929688 222.5625 541.695312 222.058594 550.214844 L 222.035156 550.21875 L 222.035156 550.621094 C 222.03125 550.78125 222.007812 550.945312 222.007812 551.109375 C 222.007812 551.277344 222.03125 551.4375 222.035156 551.601562 L 222.035156 555.542969 C 222.035156 546.609375 229.859375 539.363281 239.511719 539.363281 C 249.164062 539.363281 256.988281 546.609375 256.988281 555.542969 L 256.960938 551.109375 C 256.960938 542.171875 249.136719 534.929688 239.484375 534.929688 Z M 222.496094 556.363281 C 222.496094 560.054688 223.914062 563.4375 226.269531 566.085938 C 229.335938 569.527344 233.984375 571.726562 239.199219 571.726562 C 239.25 571.726562 239.300781 571.71875 239.355469 571.714844 C 248.507812 571.636719 255.902344 564.796875 255.902344 556.363281 C 255.902344 547.882812 248.425781 541.003906 239.203125 541.003906 C 229.976562 541.003906 222.496094 547.882812 222.496094 556.363281 Z M 222.496094 556.363281 " fill-opacity="1" fill-rule="nonzero"/></g><g clip-path="url(#ab264f677c)"><path fill="#31479d" d="M 152.195312 574.457031 L 156.386719 965.183594 L 144.324219 954.03125 C 141.652344 951.671875 140.09375 948.296875 140.03125 944.734375 L 133.875 598.675781 C 133.816406 595.222656 135.160156 591.894531 137.605469 589.453125 Z M 78.113281 1159.292969 L 78.277344 1168.210938 C 78.347656 1172.195312 75.136719 1175.46875 71.15625 1175.46875 L 44.753906 1175.46875 C 40.871094 1175.46875 37.707031 1172.355469 37.632812 1168.472656 L 37.546875 1163.753906 C 36.335938 1165.464844 35.613281 1167.542969 35.613281 1169.796875 C 35.613281 1175.597656 40.3125 1180.300781 46.109375 1180.300781 L 158.695312 1180.300781 L 158.472656 1159.296875 L 78.113281 1159.296875 Z M 152.007812 1064.621094 C 146.308594 1064.621094 141.6875 1069.242188 141.6875 1074.945312 C 141.6875 1080.648438 146.308594 1085.273438 152.007812 1085.273438 L 157.675781 1085.273438 L 157.453125 1064.621094 Z M 150.957031 1031.480469 C 145.257812 1031.480469 140.636719 1036.105469 140.636719 1041.808594 C 140.636719 1047.507812 145.257812 1052.132812 150.957031 1052.132812 L 157.320312 1052.132812 L 157.097656 1031.480469 Z M 150.511719 996.902344 C 144.8125 996.902344 140.191406 1001.527344 140.191406 1007.230469 C 140.191406 1012.929688 144.8125 1017.554688 150.511719 1017.554688 L 156.949219 1017.554688 L 156.726562 996.902344 Z M 140.605469 490.429688 C 134.304688 490.429688 129.195312 495.542969 129.195312 501.847656 C 129.195312 508.15625 134.304688 513.265625 140.605469 513.265625 L 151.535156 513.265625 L 151.292969 490.429688 Z M 139.445312 453.78125 C 133.144531 453.78125 128.035156 458.894531 128.035156 465.199219 C 128.035156 471.503906 133.144531 476.617188 139.445312 476.617188 L 151.144531 476.617188 L 150.898438 453.777344 L 139.445312 453.777344 Z M 138.316406 415.535156 C 132.015625 415.535156 126.902344 420.648438 126.902344 426.957031 C 126.902344 433.261719 132.015625 438.375 138.316406 438.375 L 150.734375 438.375 L 150.492188 415.535156 Z M 17.273438 210.8125 C 17.273438 214.898438 20.585938 218.207031 24.667969 218.207031 L 149.699219 218.207031 L 152.796875 203.417969 L 24.667969 203.417969 C 20.582031 203.417969 17.273438 206.730469 17.273438 210.8125 Z M 290.636719 1292.539062 L 187.769531 1292.539062 C 182.453125 1292.539062 178.105469 1288.210938 178.070312 1282.894531 L 171.707031 256.691406 C 171.707031 256.671875 171.707031 256.648438 171.707031 256.632812 C 171.707031 254.050781 172.707031 251.625 174.527344 249.792969 C 176.359375 247.945312 178.800781 246.929688 181.40625 246.929688 L 297.359375 246.929688 C 299.960938 246.929688 302.40625 247.949219 304.242188 249.792969 C 306.078125 251.640625 307.09375 254.117188 307.058594 256.695312 L 304.8125 600.035156 C 304.8125 600.058594 304.8125 600.082031 304.8125 600.101562 C 304.8125 603.109375 306.105469 605.964844 308.367188 607.945312 L 332.617188 629.183594 C 334.722656 631.03125 335.925781 633.683594 335.925781 636.484375 C 335.925781 636.519531 335.925781 636.554688 335.925781 636.59375 L 332.488281 959.570312 C 332.457031 962.558594 331.019531 965.410156 328.644531 967.210938 L 306.378906 984.0625 C 303.8125 986.007812 302.265625 989.089844 302.246094 992.304688 L 300.335938 1282.902344 C 300.335938 1291.371094 295.675781 1292.539062 290.636719 1292.539062 Z M 241.8125 362.664062 C 272.488281 362.664062 297.351562 337.960938 297.351562 307.488281 C 297.351562 277.011719 272.488281 252.308594 241.8125 252.308594 C 211.140625 252.308594 186.273438 277.011719 186.273438 307.488281 C 186.273438 337.960938 211.140625 362.664062 241.8125 362.664062 Z M 203.023438 460.101562 C 200.246094 454.613281 198.648438 448.464844 198.648438 441.929688 C 198.648438 419.199219 217.542969 400.773438 240.855469 400.773438 C 264.164062 400.773438 283.0625 419.199219 283.0625 441.929688 C 283.0625 448.507812 281.441406 454.699219 278.628906 460.210938 C 286.621094 451.558594 291.523438 440.1875 291.523438 427.683594 C 291.523438 400.667969 268.847656 378.765625 240.882812 378.765625 C 212.917969 378.765625 190.242188 400.664062 190.242188 427.683594 C 190.234375 440.136719 195.089844 451.464844 203.023438 460.101562 Z M 240.09375 483.09375 C 240.222656 483.09375 240.34375 483.074219 240.472656 483.074219 C 242.273438 483.058594 244.035156 482.898438 245.769531 482.664062 C 245.769531 482.664062 245.769531 482.664062 245.773438 482.664062 C 252.753906 481.710938 259.148438 479.03125 264.507812 475.078125 C 274.167969 467.941406 280.429688 456.703125 280.429688 444.027344 C 280.429688 433.046875 275.742188 423.140625 268.214844 416.042969 C 268.214844 416.042969 268.210938 416.039062 268.210938 416.039062 C 267.265625 415.148438 266.273438 414.304688 265.242188 413.507812 C 265.214844 413.488281 265.183594 413.464844 265.160156 413.445312 C 264.140625 412.664062 263.085938 411.929688 261.996094 411.242188 C 261.988281 411.242188 261.980469 411.234375 261.972656 411.230469 C 259.742188 409.832031 257.359375 408.648438 254.851562 407.691406 C 250.277344 405.949219 245.3125 404.957031 240.097656 404.957031 C 238.164062 404.957031 236.277344 405.136719 234.417969 405.390625 C 234.417969 405.390625 234.414062 405.390625 234.414062 405.390625 C 231.476562 405.792969 228.644531 406.496094 225.945312 407.480469 C 225.910156 407.496094 225.867188 407.503906 225.832031 407.519531 C 224.945312 407.847656 224.070312 408.199219 223.210938 408.585938 C 223.203125 408.585938 223.195312 408.59375 223.183594 408.59375 C 220.648438 409.730469 218.265625 411.117188 216.046875 412.714844 C 215.921875 412.804688 215.796875 412.898438 215.671875 412.988281 C 214.96875 413.511719 214.28125 414.042969 213.617188 414.605469 C 213.617188 414.605469 213.613281 414.609375 213.613281 414.609375 C 205.140625 421.769531 199.761719 432.28125 199.761719 444.03125 C 199.761719 452.226562 202.375 459.832031 206.828125 466.113281 C 207.496094 467.007812 208.140625 467.921875 208.878906 468.761719 C 210.273438 470.414062 211.832031 471.929688 213.484375 473.339844 C 214.375 474.097656 215.296875 474.8125 216.253906 475.496094 C 216.289062 475.519531 216.324219 475.546875 216.363281 475.570312 C 217.308594 476.242188 218.289062 476.871094 219.300781 477.460938 C 219.332031 477.480469 219.367188 477.503906 219.40625 477.523438 C 220.425781 478.113281 221.476562 478.664062 222.550781 479.171875 C 222.570312 479.179688 222.585938 479.1875 222.605469 479.195312 C 223.703125 479.707031 224.824219 480.171875 225.96875 480.589844 C 230.371094 482.175781 235.117188 483.09375 240.09375 483.09375 Z M 270.5 1083.8125 C 278.378906 1083.8125 284.84375 1077.394531 284.902344 1069.511719 L 289.226562 515.710938 C 289.226562 515.671875 289.226562 515.636719 289.226562 515.597656 C 289.226562 511.769531 287.746094 508.167969 285.046875 505.449219 C 282.320312 502.699219 278.6875 501.1875 274.820312 501.1875 L 206.90625 501.1875 C 203.042969 501.1875 199.414062 502.695312 196.691406 505.441406 C 193.964844 508.183594 192.515625 511.757812 192.503906 515.691406 L 196.015625 1069.488281 C 196.066406 1077.386719 202.527344 1083.8125 210.417969 1083.8125 Z M 206.242188 1181.824219 C 203.730469 1177.117188 202.28125 1171.832031 202.28125 1166.222656 C 202.28125 1146.699219 219.375 1130.875 240.457031 1130.875 C 261.539062 1130.875 278.628906 1146.695312 278.632812 1166.21875 C 278.632812 1166.21875 278.632812 1166.222656 278.632812 1166.222656 C 278.632812 1171.867188 277.167969 1177.183594 274.621094 1181.921875 C 281.851562 1174.492188 286.28125 1164.726562 286.28125 1153.984375 C 286.28125 1130.785156 265.777344 1111.976562 240.476562 1111.976562 C 215.179688 1111.976562 194.671875 1130.785156 194.671875 1153.984375 C 194.675781 1164.679688 199.070312 1174.410156 206.242188 1181.824219 Z M 227 1199.414062 C 230.980469 1200.785156 235.273438 1201.570312 239.777344 1201.570312 C 239.890625 1201.570312 240.003906 1201.554688 240.117188 1201.550781 C 241.746094 1201.535156 243.335938 1201.402344 244.910156 1201.199219 C 262.621094 1198.898438 276.257812 1184.9375 276.257812 1168.015625 C 276.257812 1157.402344 270.882812 1147.953125 262.519531 1141.804688 C 262.496094 1141.789062 262.472656 1141.773438 262.445312 1141.753906 C 261.527344 1141.082031 260.570312 1140.453125 259.582031 1139.859375 C 259.578125 1139.855469 259.570312 1139.851562 259.570312 1139.851562 C 253.863281 1136.453125 247.078125 1134.460938 239.777344 1134.460938 C 235.265625 1134.460938 230.960938 1135.25 226.976562 1136.628906 C 226.941406 1136.636719 226.90625 1136.648438 226.875 1136.660156 C 226.070312 1136.941406 225.28125 1137.246094 224.503906 1137.574219 C 224.496094 1137.574219 224.488281 1137.582031 224.476562 1137.585938 C 222.183594 1138.5625 220.027344 1139.75 218.023438 1141.125 C 217.910156 1141.203125 217.800781 1141.277344 217.691406 1141.355469 C 217.050781 1141.800781 216.429688 1142.261719 215.828125 1142.746094 C 215.828125 1142.746094 215.824219 1142.746094 215.824219 1142.75 C 208.160156 1148.898438 203.292969 1157.925781 203.292969 1168.015625 C 203.292969 1175.054688 205.65625 1181.585938 209.6875 1186.980469 C 210.289062 1187.75 210.871094 1188.539062 211.539062 1189.257812 C 212.804688 1190.671875 214.210938 1191.976562 215.707031 1193.1875 C 215.707031 1193.1875 215.710938 1193.1875 215.710938 1193.191406 C 216.515625 1193.84375 217.351562 1194.453125 218.214844 1195.042969 C 218.246094 1195.0625 218.277344 1195.085938 218.308594 1195.105469 C 219.167969 1195.679688 220.050781 1196.21875 220.964844 1196.726562 C 220.996094 1196.742188 221.027344 1196.765625 221.0625 1196.78125 C 221.984375 1197.289062 222.933594 1197.761719 223.90625 1198.191406 C 223.921875 1198.203125 223.941406 1198.207031 223.957031 1198.214844 C 224.945312 1198.65625 225.957031 1199.054688 227 1199.414062 C 226.996094 1199.414062 227 1199.414062 227 1199.414062 Z M 240.453125 1288.03125 C 265.765625 1288.03125 286.285156 1269.695312 286.285156 1247.074219 C 286.285156 1224.453125 265.765625 1206.113281 240.453125 1206.113281 C 215.144531 1206.113281 194.625 1224.453125 194.625 1247.074219 C 194.625 1269.695312 215.144531 1288.03125 240.453125 1288.03125 Z M 403.691406 959.136719 C 406.164062 957.164062 409.265625 956.082031 412.421875 956.082031 L 696.058594 956.082031 C 699.941406 956.082031 703.546875 957.632812 706.21875 960.453125 C 708.890625 963.273438 710.238281 966.972656 710.046875 970.839844 L 693.910156 1277.609375 C 693.519531 1285.054688 687.375 1290.886719 679.917969 1290.886719 L 340.046875 1290.886719 C 336.273438 1290.886719 332.738281 1289.414062 330.085938 1286.730469 C 327.46875 1284.085938 326.035156 1280.589844 326.035156 1276.875 C 326.035156 1276.828125 326.035156 1276.777344 326.035156 1276.726562 L 328.617188 1025.566406 C 328.660156 1021.328125 330.585938 1017.386719 333.898438 1014.742188 Z M 515.703125 969.777344 C 417.457031 969.777344 337.816406 1040.933594 337.816406 1128.714844 C 337.816406 1216.492188 417.457031 1287.648438 515.703125 1287.648438 C 613.949219 1287.648438 693.59375 1216.488281 693.59375 1128.710938 C 693.59375 1040.933594 613.949219 969.777344 515.703125 969.777344 Z M 350.503906 246.273438 L 733.398438 246.273438 C 737.28125 246.273438 740.886719 247.828125 743.5625 250.644531 C 746.234375 253.464844 747.613281 257.125 747.390625 261.027344 L 728.121094 627.273438 C 727.730469 634.71875 721.585938 640.554688 714.132812 640.554688 L 422.03125 640.554688 C 418.652344 640.554688 415.386719 639.332031 412.839844 637.117188 L 338.210938 572.234375 C 335.144531 569.566406 333.390625 565.71875 333.390625 561.65625 C 333.390625 561.605469 333.390625 561.558594 333.390625 561.507812 L 336.492188 260.144531 C 336.570312 252.496094 342.855469 246.273438 350.503906 246.273438 Z M 539.328125 258.664062 C 434.09375 258.664062 348.78125 342.832031 348.78125 446.65625 C 348.78125 550.484375 434.089844 634.652344 539.328125 634.652344 C 644.566406 634.652344 729.878906 550.484375 729.878906 446.65625 C 729.878906 342.832031 644.566406 258.664062 539.328125 258.664062 Z M 517.300781 1028.742188 C 582.914062 1028.742188 636.101562 1076.277344 636.101562 1134.917969 C 636.101562 1193.554688 582.914062 1241.089844 517.300781 1241.089844 C 451.6875 1241.089844 398.496094 1193.554688 398.496094 1134.917969 C 398.496094 1076.277344 451.683594 1028.742188 517.300781 1028.742188 Z M 518.117188 1050.558594 C 471.410156 1050.558594 433.550781 1084.40625 433.550781 1126.15625 C 433.550781 1167.910156 471.410156 1201.753906 518.117188 1201.753906 C 564.820312 1201.753906 602.683594 1167.910156 602.683594 1126.15625 C 602.683594 1084.40625 564.820312 1050.558594 518.117188 1050.558594 Z M 541.035156 328.40625 C 611.320312 328.40625 668.292969 384.632812 668.292969 453.988281 C 668.292969 523.347656 611.320312 579.574219 541.035156 579.574219 C 470.753906 579.574219 413.777344 523.347656 413.777344 453.988281 C 413.777344 384.632812 470.753906 328.40625 541.035156 328.40625 Z M 541.914062 354.214844 C 491.886719 354.214844 451.328125 394.25 451.328125 443.636719 C 451.328125 493.019531 491.886719 533.054688 541.914062 533.054688 C 591.9375 533.054688 632.496094 493.019531 632.496094 443.636719 C 632.496094 394.25 591.9375 354.214844 541.914062 354.214844 Z M 424.773438 889.691406 L 424.453125 904.671875 L 424.773438 889.695312 Z M 424.78125 889.277344 L 428.75 702.632812 Z M 514.539062 889.636719 L 514.539062 889.996094 L 512.390625 889.996094 L 424.453125 904.667969 L 521.769531 904.667969 Z M 529.351562 702.632812 L 521.5625 702.632812 L 521.769531 904.671875 Z M 256.21875 899.269531 L 257.714844 707.421875 C 257.722656 702.914062 256.027344 698.695312 252.859375 695.5 C 249.695312 692.308594 245.476562 690.550781 240.984375 690.550781 L 238.269531 690.550781 C 233.78125 690.550781 229.566406 692.304688 226.402344 695.488281 C 223.265625 698.652344 221.539062 702.835938 221.539062 707.289062 C 221.539062 707.324219 221.539062 707.359375 221.539062 707.398438 L 222.757812 899.242188 C 222.816406 908.414062 230.320312 915.878906 239.488281 915.878906 C 248.640625 915.878906 256.144531 908.425781 256.21875 899.269531 Z M 256.21875 899.269531 " fill-opacity="1" fill-rule="nonzero"/></g><g clip-path="url(#bf09a88370)"><path fill="#ef4523" d="M 44.472656 1168.136719 C 44.078125 1168.140625 43.75 1167.828125 43.742188 1167.429688 L 27.320312 243.472656 C 27.320312 243.46875 27.320312 243.460938 27.320312 243.460938 L 28.519531 243.460938 C 28.519531 243.460938 28.519531 243.46875 28.519531 243.472656 L 44.949219 1167.429688 C 44.949219 1167.539062 45.023438 1167.613281 45.066406 1167.703125 C 44.953125 1167.941406 44.757812 1168.132812 44.472656 1168.136719 Z M 70.347656 1167.703125 C 70.304688 1167.613281 70.234375 1167.539062 70.230469 1167.429688 L 53.027344 243.476562 C 53.027344 243.472656 53.027344 243.464844 53.027344 243.460938 L 51.824219 243.460938 C 51.824219 243.464844 51.824219 243.472656 51.824219 243.476562 L 69.027344 1167.429688 C 69.03125 1167.828125 69.363281 1168.144531 69.757812 1168.136719 C 70.039062 1168.132812 70.234375 1167.941406 70.347656 1167.703125 Z M 57.695312 1167.703125 C 57.652344 1167.613281 57.582031 1167.539062 57.578125 1167.429688 L 40.882812 243.472656 C 40.882812 243.46875 40.882812 243.460938 40.882812 243.460938 L 39.683594 243.460938 C 39.683594 243.460938 39.683594 243.46875 39.683594 243.472656 L 56.378906 1167.429688 C 56.382812 1167.828125 56.714844 1168.144531 57.105469 1168.140625 C 57.390625 1168.132812 57.585938 1167.941406 57.695312 1167.703125 Z M 331.601562 217.207031 L 361.351562 224.59375 L 761.171875 224.59375 L 700.683594 1298.160156 L 701.402344 1298.199219 L 701.402344 1298.207031 L 326.464844 1298.207031 L 318.992188 1293.0625 L 301.855469 1298.207031 L 159.960938 1298.207031 L 158.921875 1201.570312 L 158.695312 1180.300781 L 158.472656 1159.296875 L 157.679688 1085.273438 L 157.457031 1064.625 L 157.320312 1052.136719 L 157.101562 1031.484375 L 156.953125 1017.554688 L 156.730469 996.902344 L 156.390625 965.183594 L 152.199219 574.457031 L 151.542969 513.269531 L 151.296875 490.429688 L 151.148438 476.621094 L 150.90625 453.78125 L 150.738281 438.375 L 150.492188 415.535156 L 148.644531 243.464844 L 148.4375 224.273438 L 309.433594 224.273438 Z M 348.914062 238.273438 C 336.808594 238.273438 326.886719 248.128906 326.800781 260.242188 L 324.691406 547.863281 C 324.691406 547.933594 324.691406 548.003906 324.691406 548.078125 C 324.691406 556.570312 328.355469 564.621094 334.769531 570.191406 L 350.160156 583.570312 L 406.179688 632.277344 L 367.929688 632.277344 C 358.65625 632.277344 351.109375 639.753906 351.015625 649.03125 L 348.214844 928.003906 C 348.128906 936.964844 353.730469 944.621094 361.632812 947.617188 C 363.46875 948.46875 365.496094 948.976562 367.652344 948.976562 L 402.28125 948.976562 C 399.949219 948.976562 397.6875 949.777344 395.871094 951.238281 L 329.207031 1004.992188 C 325.253906 1008.179688 322.941406 1012.976562 322.90625 1018.058594 L 321.289062 1273.398438 C 321.234375 1282.195312 327.59375 1289.515625 335.96875 1290.96875 C 337.28125 1291.347656 338.632812 1291.609375 340.042969 1291.609375 L 679.917969 1291.609375 C 687.753906 1291.609375 694.214844 1285.476562 694.625 1277.648438 L 710.761719 970.878906 C 710.777344 970.609375 710.785156 970.34375 710.785156 970.078125 C 710.785156 967.820312 710.21875 965.664062 709.25 963.679688 C 706.742188 955.222656 698.929688 948.980469 689.585938 948.980469 L 697.917969 948.980469 C 705.5625 948.980469 711.867188 942.992188 712.269531 935.359375 L 726.960938 656.054688 C 726.960938 656.03125 726.960938 656.007812 726.960938 655.988281 L 727.113281 653.089844 C 727.398438 647.660156 725.453125 642.660156 722.121094 638.914062 C 725.957031 636.429688 728.574219 632.203125 728.835938 627.3125 L 734.339844 522.710938 L 748.1875 259.5 C 748.207031 259.132812 748.214844 258.769531 748.214844 258.402344 C 748.214844 253.226562 746.273438 248.347656 742.683594 244.5625 C 738.839844 240.507812 733.644531 238.273438 728.054688 238.273438 Z M 184.4375 238.273438 C 175.710938 238.273438 170.984375 241.054688 170.984375 255.707031 L 170.992188 256.570312 C 170.992188 256.589844 170.984375 256.609375 170.984375 256.628906 C 170.984375 256.652344 170.984375 256.675781 170.984375 256.695312 L 177.347656 1282.902344 C 177.386719 1288.609375 182.058594 1293.261719 187.765625 1293.261719 L 290.632812 1293.261719 C 296.484375 1293.261719 308.660156 1293.261719 308.660156 1283.628906 L 310.613281 992.3125 C 310.632812 989.320312 312.15625 986.453125 314.6875 984.644531 L 338.253906 967.789062 C 340.953125 965.859375 342.589844 962.789062 342.625 959.582031 L 346.261719 621.816406 C 346.261719 621.78125 346.261719 621.75 346.261719 621.710938 C 346.261719 618.699219 344.894531 615.84375 342.496094 613.859375 L 316.832031 592.621094 C 314.589844 590.761719 313.300781 588.113281 313.328125 585.261719 L 315.707031 252.957031 C 315.707031 245.664062 310.941406 238.28125 301.832031 238.28125 L 184.4375 238.28125 Z M 148.429688 223.816406 L 148.4375 224.25 L 148.527344 223.816406 Z M 244.910156 1201.199219 C 251.226562 1200.382812 257.011719 1198.082031 261.855469 1194.683594 L 257.910156 1190.25 C 254.019531 1193.207031 249.257812 1195.207031 244.050781 1195.949219 Z M 253.53125 1185.320312 L 239.777344 1169.839844 L 243.019531 1189.636719 C 246.964844 1189.074219 250.578125 1187.558594 253.53125 1185.320312 Z M 243.933594 1195.238281 C 249 1194.519531 253.636719 1192.578125 257.429688 1189.707031 L 254.007812 1185.855469 C 250.953125 1188.183594 247.214844 1189.757812 243.128906 1190.347656 Z M 239.777344 1169.839844 L 254.339844 1155.035156 C 252.316406 1153.34375 249.957031 1151.996094 247.351562 1151.09375 Z M 247.617188 1150.425781 C 250.3125 1151.367188 252.753906 1152.765625 254.839844 1154.523438 L 258.46875 1150.835938 C 255.875 1148.667969 252.839844 1146.941406 249.5 1145.78125 Z M 258.972656 1150.324219 L 265.203125 1143.984375 C 264.347656 1143.21875 263.453125 1142.492188 262.519531 1141.808594 C 262.496094 1141.792969 262.46875 1141.777344 262.441406 1141.757812 C 261.523438 1141.082031 260.570312 1140.453125 259.578125 1139.863281 C 259.574219 1139.859375 259.570312 1139.855469 259.566406 1139.855469 C 257.546875 1138.65625 255.386719 1137.632812 253.121094 1136.8125 L 249.761719 1145.117188 C 253.199219 1146.3125 256.308594 1148.089844 258.972656 1150.324219 Z M 225.96875 1154.226562 L 239.773438 1169.84375 L 236.851562 1149.964844 C 232.769531 1150.445312 229.03125 1151.960938 225.96875 1154.226562 Z M 236.03125 1144.351562 C 230.792969 1144.972656 226.003906 1146.921875 222.082031 1149.832031 L 225.488281 1153.6875 C 228.652344 1151.332031 232.519531 1149.757812 236.75 1149.253906 Z M 226.871094 1136.664062 C 226.066406 1136.941406 225.277344 1137.25 224.5 1137.574219 C 224.492188 1137.578125 224.484375 1137.585938 224.476562 1137.585938 C 222.183594 1138.5625 220.023438 1139.753906 218.019531 1141.128906 C 217.90625 1141.203125 217.796875 1141.28125 217.6875 1141.355469 C 217.050781 1141.804688 216.429688 1142.265625 215.824219 1142.75 C 215.824219 1142.75 215.820312 1142.75 215.820312 1142.75 L 221.605469 1149.292969 C 225.628906 1146.292969 230.542969 1144.289062 235.929688 1143.644531 L 234.632812 1134.839844 C 231.976562 1135.183594 229.414062 1135.792969 226.972656 1136.632812 C 226.9375 1136.640625 226.902344 1136.652344 226.871094 1136.664062 Z M 229.148438 1194.4375 C 225.714844 1193.191406 222.605469 1191.351562 219.964844 1189.058594 L 215.707031 1193.191406 C 215.707031 1193.191406 215.710938 1193.191406 215.710938 1193.191406 C 216.515625 1193.84375 217.351562 1194.460938 218.214844 1195.042969 C 218.246094 1195.066406 218.277344 1195.085938 218.308594 1195.109375 C 219.164062 1195.683594 220.050781 1196.222656 220.964844 1196.730469 C 220.996094 1196.746094 221.027344 1196.765625 221.0625 1196.785156 C 221.984375 1197.292969 222.933594 1197.765625 223.90625 1198.195312 C 223.921875 1198.203125 223.941406 1198.210938 223.957031 1198.21875 C 224.945312 1198.65625 225.957031 1199.054688 226.996094 1199.414062 C 226.996094 1199.414062 226.996094 1199.414062 227 1199.414062 Z M 231.425781 1189.167969 C 228.722656 1188.191406 226.28125 1186.75 224.203125 1184.945312 L 220.484375 1188.554688 C 223.0625 1190.78125 226.089844 1192.566406 229.4375 1193.777344 Z M 231.707031 1188.507812 L 239.777344 1169.839844 L 224.722656 1184.441406 C 226.730469 1186.179688 229.097656 1187.566406 231.707031 1188.507812 Z M 245.769531 482.660156 C 252.753906 481.707031 259.148438 479.03125 264.503906 475.074219 L 260.917969 470.824219 C 256.394531 474.160156 250.914062 476.410156 244.921875 477.214844 Z M 244.8125 476.503906 C 250.671875 475.71875 256.03125 473.523438 260.457031 470.273438 L 256.632812 465.746094 C 253.050781 468.40625 248.695312 470.203125 243.933594 470.847656 Z M 256.171875 465.195312 L 240.097656 446.144531 L 243.824219 470.136719 C 248.453125 469.515625 252.6875 467.773438 256.171875 465.195312 Z M 240.09375 446.144531 L 256.464844 428.613281 C 254.101562 426.816406 251.371094 425.414062 248.40625 424.480469 Z M 248.664062 423.808594 C 251.71875 424.777344 254.523438 426.226562 256.957031 428.089844 L 261.019531 423.742188 C 258.003906 421.425781 254.523438 419.625 250.734375 418.421875 Z M 261.511719 423.214844 L 268.210938 416.039062 C 268.210938 416.039062 268.207031 416.039062 268.207031 416.039062 C 267.261719 415.144531 266.269531 414.300781 265.238281 413.503906 C 265.210938 413.484375 265.183594 413.464844 265.15625 413.445312 C 264.136719 412.660156 263.085938 411.925781 261.992188 411.242188 C 261.984375 411.238281 261.976562 411.234375 261.972656 411.230469 C 259.738281 409.835938 257.355469 408.644531 254.851562 407.691406 L 250.992188 417.75 C 254.867188 418.980469 258.429688 420.835938 261.511719 423.214844 Z M 224.765625 427.882812 L 240.09375 446.144531 L 236.921875 423.382812 C 232.402344 423.898438 228.25 425.496094 224.765625 427.882812 Z M 236.035156 417.007812 C 230.25 417.667969 224.941406 419.722656 220.496094 422.792969 L 224.304688 427.332031 C 227.890625 424.863281 232.164062 423.207031 236.828125 422.671875 Z M 225.945312 407.472656 C 225.90625 407.484375 225.867188 407.496094 225.828125 407.511719 C 224.941406 407.835938 224.0625 408.191406 223.207031 408.574219 C 223.199219 408.578125 223.191406 408.585938 223.183594 408.585938 C 220.648438 409.71875 218.265625 411.109375 216.046875 412.707031 C 215.917969 412.796875 215.796875 412.890625 215.667969 412.980469 C 214.96875 413.5 214.277344 414.035156 213.613281 414.597656 C 213.613281 414.597656 213.613281 414.601562 213.613281 414.601562 L 220.027344 422.246094 C 224.574219 419.089844 230.007812 416.976562 235.929688 416.296875 L 234.410156 405.382812 C 234.410156 405.382812 234.40625 405.382812 234.40625 405.382812 C 231.472656 405.785156 228.640625 406.492188 225.945312 407.472656 Z M 217.398438 469.332031 L 213.484375 473.332031 C 214.375 474.089844 215.300781 474.804688 216.253906 475.488281 C 216.289062 475.511719 216.324219 475.539062 216.363281 475.5625 C 217.308594 476.230469 218.289062 476.863281 219.300781 477.449219 C 219.332031 477.472656 219.367188 477.496094 219.40625 477.515625 C 220.425781 478.105469 221.476562 478.65625 222.550781 479.160156 C 222.570312 479.171875 222.585938 479.179688 222.605469 479.1875 C 223.703125 479.699219 224.824219 480.164062 225.96875 480.578125 L 228.0625 475.480469 C 224.082031 474.058594 220.476562 471.960938 217.398438 469.332031 Z M 230.804688 468.796875 L 240.09375 446.144531 L 222.574219 464.042969 C 224.949219 466.074219 227.726562 467.699219 230.804688 468.796875 Z M 230.53125 469.464844 C 227.371094 468.328125 224.511719 466.652344 222.074219 464.558594 L 217.902344 468.820312 C 220.914062 471.382812 224.441406 473.429688 228.335938 474.8125 Z M 518.117188 1050.558594 C 564.820312 1050.558594 602.683594 1084.40625 602.683594 1126.15625 C 602.683594 1167.910156 564.820312 1201.753906 518.117188 1201.753906 C 471.410156 1201.753906 433.550781 1167.910156 433.550781 1126.15625 C 433.550781 1084.40625 471.410156 1050.558594 518.117188 1050.558594 Z M 518.933594 1072.378906 C 491.136719 1072.378906 468.601562 1092.535156 468.601562 1117.402344 C 468.601562 1142.269531 491.136719 1162.425781 518.933594 1162.425781 C 546.730469 1162.425781 569.261719 1142.269531 569.261719 1117.402344 C 569.261719 1092.535156 546.730469 1072.378906 518.933594 1072.378906 Z M 541.914062 354.214844 C 591.9375 354.214844 632.496094 394.25 632.496094 443.636719 C 632.496094 493.019531 591.9375 533.054688 541.914062 533.054688 C 491.886719 533.054688 451.328125 493.019531 451.328125 443.636719 C 451.328125 394.25 491.882812 354.214844 541.914062 354.214844 Z M 542.789062 380.023438 C 513.015625 380.023438 488.878906 403.867188 488.878906 433.28125 C 488.878906 462.695312 513.015625 486.539062 542.789062 486.539062 C 572.5625 486.539062 596.699219 462.695312 596.699219 433.28125 C 596.699219 403.867188 572.5625 380.023438 542.789062 380.023438 Z M 558.027344 658.789062 L 547.800781 938.667969 C 547.820312 939.371094 548.390625 940.128906 549.183594 940.15625 C 549.863281 940.183594 550.425781 939.71875 550.597656 939.085938 C 550.53125 938.976562 550.453125 938.867188 550.460938 938.695312 L 560.683594 658.820312 C 560.691406 658.691406 560.769531 658.601562 560.832031 658.5 C 560.679688 657.894531 560.167969 657.429688 559.515625 657.40625 C 558.722656 657.375 558.058594 657.992188 558.027344 658.789062 Z M 629.691406 658.761719 L 614.613281 938.640625 C 614.53125 939.414062 615.175781 940.109375 615.972656 940.15625 C 616.671875 940.191406 617.253906 939.710938 617.417969 939.054688 C 617.355469 938.941406 617.28125 938.828125 617.277344 938.675781 L 632.351562 658.796875 C 632.355469 658.675781 632.4375 658.589844 632.496094 658.492188 C 632.347656 657.894531 631.851562 657.433594 631.207031 657.398438 C 630.410156 657.363281 629.734375 657.96875 629.691406 658.761719 Z M 572.277344 658.785156 L 561.164062 938.660156 C 561.160156 939.488281 561.75 940.125 562.542969 940.15625 C 563.238281 940.1875 563.804688 939.707031 563.96875 939.058594 C 563.902344 938.945312 563.828125 938.824219 563.828125 938.695312 L 574.941406 658.8125 C 574.945312 658.691406 575.027344 658.601562 575.082031 658.503906 C 574.933594 657.894531 574.421875 657.429688 573.769531 657.402344 C 572.976562 657.371094 572.308594 657.988281 572.277344 658.785156 Z M 586.523438 658.777344 L 574.527344 938.660156 C 574.558594 939.410156 575.105469 940.121094 575.902344 940.15625 C 576.585938 940.1875 577.148438 939.722656 577.324219 939.09375 C 577.253906 938.976562 577.179688 938.863281 577.191406 938.691406 L 589.191406 658.808594 C 589.199219 658.6875 589.277344 658.601562 589.335938 658.503906 C 589.1875 657.898438 588.675781 657.433594 588.027344 657.402344 C 587.230469 657.371094 586.5625 657.988281 586.523438 658.777344 Z M 600.78125 658.773438 L 587.894531 938.652344 C 587.808594 939.433594 588.46875 940.121094 589.261719 940.15625 C 589.957031 940.1875 590.535156 939.707031 590.695312 939.054688 C 590.628906 938.941406 590.558594 938.828125 590.554688 938.683594 L 603.4375 658.804688 C 603.445312 658.679688 603.523438 658.59375 603.585938 658.492188 C 603.433594 657.894531 602.929688 657.429688 602.28125 657.402344 C 601.488281 657.371094 600.816406 657.980469 600.78125 658.773438 Z M 615.027344 658.769531 L 601.253906 938.652344 C 601.128906 939.4375 601.824219 940.117188 602.617188 940.15625 C 603.316406 940.191406 603.890625 939.710938 604.054688 939.0625 C 603.988281 938.945312 603.917969 938.832031 603.917969 938.6875 L 617.691406 658.808594 C 617.699219 658.6875 617.777344 658.601562 617.835938 658.503906 C 617.6875 657.90625 617.183594 657.4375 616.535156 657.410156 C 615.742188 657.367188 615.070312 657.976562 615.027344 658.769531 Z M 706.535156 658.761719 L 691.457031 938.640625 C 691.367188 939.414062 692.019531 940.109375 692.816406 940.15625 C 693.515625 940.191406 694.097656 939.710938 694.261719 939.058594 C 694.195312 938.945312 694.121094 938.832031 694.121094 938.679688 L 709.195312 658.796875 C 709.199219 658.679688 709.28125 658.589844 709.339844 658.492188 C 709.191406 657.898438 708.695312 657.4375 708.050781 657.402344 C 707.253906 657.363281 706.574219 657.96875 706.535156 658.761719 Z M 478.464844 856.882812 C 478.464844 852.601562 474.671875 849.128906 469.988281 849.128906 C 465.308594 849.128906 461.511719 852.601562 461.511719 856.882812 C 461.511719 861.167969 465.308594 864.640625 469.988281 864.640625 C 474.671875 864.640625 478.464844 861.167969 478.464844 856.882812 Z M 482.003906 729.582031 C 482.003906 724.613281 477.976562 720.582031 473.007812 720.582031 C 468.039062 720.582031 464.007812 724.613281 464.007812 729.582031 C 464.007812 734.554688 468.039062 738.585938 473.007812 738.585938 C 477.976562 738.585938 482.003906 734.558594 482.003906 729.582031 Z M 514.539062 889.636719 Z M 424.773438 889.996094 L 424.773438 889.691406 L 424.453125 904.667969 L 512.390625 889.996094 Z M 389.398438 777.652344 L 388.734375 817.671875 L 408.132812 798.761719 Z M 539.328125 285.203125 C 634.789062 285.203125 712.449219 361.824219 712.449219 456.007812 C 712.449219 550.195312 634.789062 626.816406 539.328125 626.816406 C 443.871094 626.816406 366.210938 550.195312 366.210938 456.007812 C 366.210938 361.824219 443.871094 285.203125 539.328125 285.203125 Z M 539.328125 286.640625 C 444.664062 286.640625 367.648438 362.621094 367.648438 456.007812 C 367.648438 529.894531 415.871094 592.839844 482.882812 615.925781 C 500.574219 622.023438 519.558594 625.378906 539.332031 625.378906 C 571.140625 625.378906 600.933594 616.769531 626.503906 601.835938 C 677.039062 572.324219 711.015625 518.019531 711.015625 456.007812 C 711.011719 362.621094 633.992188 286.640625 539.328125 286.640625 Z M 514.621094 994.964844 C 602.878906 994.964844 674.683594 1059.152344 674.683594 1138.050781 C 674.683594 1216.949219 602.878906 1281.136719 514.621094 1281.136719 C 426.359375 1281.136719 354.554688 1216.949219 354.554688 1138.050781 C 354.554688 1059.152344 426.359375 994.964844 514.621094 994.964844 Z M 514.621094 996.402344 C 427.148438 996.402344 355.992188 1059.945312 355.992188 1138.050781 C 355.992188 1202.179688 403.972656 1256.457031 469.554688 1273.84375 C 483.851562 1277.632812 498.964844 1279.699219 514.617188 1279.699219 C 562.882812 1279.699219 606.152344 1260.324219 635.273438 1229.855469 C 658.921875 1205.109375 673.246094 1173.054688 673.246094 1138.050781 C 673.25 1059.945312 602.089844 996.402344 514.621094 996.402344 Z M 476.425781 814.097656 L 477.425781 783.464844 L 462.535156 783.464844 L 461.882812 814.097656 Z M 197.707031 506.449219 C 200.160156 503.984375 203.425781 502.621094 206.90625 502.621094 L 274.820312 502.621094 C 278.304688 502.621094 281.574219 503.984375 284.027344 506.457031 C 286.480469 508.933594 287.792969 512.242188 287.792969 515.699219 L 283.464844 1069.5 C 283.410156 1076.597656 277.59375 1082.375 270.5 1082.375 L 210.421875 1082.375 C 203.316406 1082.375 197.496094 1076.589844 197.453125 1069.480469 L 193.9375 515.679688 C 193.933594 512.261719 195.253906 508.921875 197.707031 506.449219 Z M 239.648438 1030.597656 C 229.667969 1030.597656 221.578125 1038.019531 221.578125 1047.171875 C 221.578125 1051.449219 223.359375 1055.335938 226.261719 1058.273438 C 226.996094 1059.613281 227.902344 1060.855469 229.042969 1061.898438 C 231.664062 1064.386719 235.3125 1065.941406 239.371094 1065.941406 C 239.417969 1065.941406 239.460938 1065.929688 239.507812 1065.929688 C 239.550781 1065.929688 239.59375 1065.941406 239.640625 1065.941406 C 245.488281 1065.941406 250.5 1062.824219 252.996094 1058.316406 C 255.921875 1055.371094 257.722656 1051.464844 257.722656 1047.167969 C 257.722656 1038.019531 249.632812 1030.597656 239.648438 1030.597656 Z M 239.371094 980.328125 C 229.390625 980.328125 221.300781 987.75 221.300781 996.902344 C 221.300781 1001.179688 223.082031 1005.066406 225.980469 1008.007812 C 226.714844 1009.347656 227.625 1010.585938 228.765625 1011.632812 C 231.382812 1014.117188 235.035156 1015.675781 239.09375 1015.675781 C 239.136719 1015.675781 239.179688 1015.664062 239.226562 1015.664062 C 239.273438 1015.664062 239.316406 1015.675781 239.363281 1015.675781 C 245.210938 1015.675781 250.222656 1012.558594 252.71875 1008.046875 C 255.644531 1005.101562 257.441406 1001.195312 257.441406 996.902344 C 257.445312 987.75 249.351562 980.328125 239.371094 980.328125 Z M 238.273438 689.832031 C 233.589844 689.832031 229.195312 691.664062 225.894531 694.984375 C 222.621094 698.28125 220.824219 702.644531 220.824219 707.289062 C 220.824219 707.328125 220.824219 707.363281 220.824219 707.402344 L 222.039062 899.25 C 222.101562 908.8125 229.925781 916.597656 239.488281 916.597656 C 249.035156 916.597656 256.863281 908.828125 256.9375 899.273438 L 258.433594 707.429688 C 258.433594 707.378906 258.433594 707.335938 258.433594 707.289062 C 258.433594 702.652344 256.636719 698.289062 253.371094 694.996094 C 250.074219 691.667969 245.671875 689.832031 240.984375 689.832031 Z M 239.523438 587.941406 C 228.75 587.941406 220.015625 595.953125 220.015625 605.832031 C 220.015625 610.386719 221.886719 614.53125 224.941406 617.6875 C 225.75 619.203125 226.808594 620.578125 228.089844 621.75 C 228.289062 621.9375 228.507812 622.101562 228.714844 622.273438 C 229.042969 622.546875 229.386719 622.808594 229.738281 623.054688 C 230.328125 623.472656 230.949219 623.847656 231.601562 624.191406 C 231.71875 624.25 231.839844 624.3125 231.957031 624.367188 C 232.726562 624.746094 233.523438 625.058594 234.363281 625.3125 C 234.585938 625.382812 234.808594 625.445312 235.03125 625.503906 C 235.625 625.65625 236.21875 625.789062 236.835938 625.875 C 237.519531 625.980469 238.21875 626.042969 238.929688 626.066406 C 239.027344 626.070312 239.125 626.097656 239.222656 626.097656 C 239.257812 626.097656 239.289062 626.085938 239.320312 626.085938 C 239.386719 626.085938 239.449219 626.097656 239.515625 626.097656 C 245.898438 626.097656 251.402344 622.683594 254.066406 617.730469 C 257.144531 614.566406 259.03125 610.40625 259.03125 605.832031 C 259.03125 595.953125 250.296875 587.941406 239.523438 587.941406 Z M 239.523438 530.710938 C 227.941406 530.710938 218.554688 539.320312 218.554688 549.941406 C 218.554688 554.835938 220.566406 559.289062 223.847656 562.683594 C 224.503906 563.914062 225.316406 565.058594 226.273438 566.085938 C 229.335938 569.527344 233.988281 571.726562 239.203125 571.726562 C 239.253906 571.726562 239.304688 571.71875 239.359375 571.714844 C 239.410156 571.714844 239.460938 571.726562 239.515625 571.726562 C 246.375 571.726562 252.296875 568.054688 255.15625 562.730469 C 258.464844 559.332031 260.492188 554.859375 260.492188 549.945312 C 260.492188 539.320312 251.101562 530.710938 239.523438 530.710938 Z M 672.136719 744.761719 C 672.296875 742.234375 671.46875 739.808594 669.792969 737.917969 C 668.121094 736.023438 665.8125 734.90625 663.292969 734.761719 L 661.742188 734.671875 C 659.222656 734.527344 656.800781 735.378906 654.929688 737.066406 C 653.050781 738.75 651.945312 741.066406 651.816406 743.589844 L 646.296875 853.019531 C 646.027344 858.152344 650.011719 862.59375 655.152344 862.886719 C 660.285156 863.179688 664.734375 859.238281 665.066406 854.101562 Z M 672.136719 744.761719 " fill-opacity="1" fill-rule="nonzero"/></g></svg>