<svg xmlns="http://www.w3.org/2000/svg" xmlns:xlink="http://www.w3.org/1999/xlink" width="500" zoomAndPan="magnify" viewBox="0 0 375 374.999991" height="500" preserveAspectRatio="xMidYMid meet" version="1.0"><defs><clipPath id="c352696961"><path d="M 74.777344 14.289062 L 374.539062 14.289062 L 374.539062 360.769531 L 74.777344 360.769531 Z M 74.777344 14.289062 " clip-rule="nonzero"/></clipPath></defs><g clip-path="url(#c352696961)"><path fill="#8a008a" d="M 349.082031 79.707031 C 342.230469 78.011719 335.519531 75.558594 328.855469 72.328125 C 322.808594 69.394531 316.863281 65.84375 310.949219 61.621094 C 311.375 58.976562 311.824219 56.328125 312.28125 53.683594 L 369.101562 20.847656 C 361.03125 40.390625 354.328125 60.09375 349.082031 79.707031 Z M 351.960938 80.375 C 357.117188 61.113281 363.6875 41.761719 371.585938 22.5625 L 371.585938 82.570312 C 364.871094 82.476562 358.351562 81.75 351.960938 80.375 Z M 344.238281 114.753906 C 345.027344 110.390625 345.890625 106.03125 346.820312 101.683594 C 348.132812 95.550781 349.597656 89.398438 351.203125 83.238281 C 357.839844 84.675781 364.609375 85.433594 371.585938 85.527344 L 371.585938 117.0625 C 362.394531 116.992188 353.316406 116.230469 344.238281 114.753906 Z M 339.378906 150.160156 C 340.390625 139.320312 341.839844 128.472656 343.71875 117.664062 C 352.964844 119.171875 362.214844 119.945312 371.585938 120.019531 L 371.585938 151.550781 C 360.664062 151.511719 349.960938 151.035156 339.378906 150.160156 Z M 337.628906 186.050781 C 337.671875 175.109375 338.164062 164.113281 339.113281 153.105469 C 349.78125 153.988281 360.566406 154.46875 371.585938 154.507812 L 371.585938 186.050781 Z M 339.113281 221.953125 C 338.164062 210.941406 337.671875 199.945312 337.628906 189.007812 L 371.585938 189.007812 L 371.585938 220.546875 C 360.566406 220.585938 349.78125 221.066406 339.113281 221.953125 Z M 343.71875 257.390625 C 341.839844 246.582031 340.390625 235.734375 339.378906 224.898438 C 349.960938 224.019531 360.664062 223.542969 371.585938 223.503906 L 371.585938 255.035156 C 362.214844 255.109375 352.964844 255.886719 343.71875 257.390625 Z M 351.203125 291.820312 C 349.597656 285.65625 348.132812 279.503906 346.820312 273.371094 C 345.890625 269.023438 345.027344 264.667969 344.238281 260.304688 C 353.316406 258.828125 362.394531 258.066406 371.585938 257.992188 L 371.585938 289.527344 C 364.609375 289.625 357.839844 290.378906 351.203125 291.820312 Z M 351.960938 294.683594 C 358.351562 293.304688 364.871094 292.578125 371.585938 292.488281 L 371.585938 352.496094 C 363.6875 333.292969 357.117188 313.941406 351.960938 294.683594 Z M 310.949219 313.433594 C 316.863281 309.214844 322.808594 305.664062 328.855469 302.726562 C 335.519531 299.496094 342.230469 297.042969 349.082031 295.347656 C 354.328125 314.960938 361.03125 334.664062 369.101562 354.210938 L 312.28125 321.371094 C 311.824219 318.726562 311.375 316.082031 310.949219 313.433594 Z M 308.273438 315.390625 C 308.496094 316.746094 308.726562 318.097656 308.953125 319.449219 L 305.554688 317.484375 C 306.460938 316.773438 307.367188 316.070312 308.273438 315.390625 Z M 266.71875 289.46875 C 271.535156 286.746094 276.332031 284.164062 281.121094 281.746094 C 288.339844 278.109375 295.410156 274.910156 302.378906 272.128906 C 303.828125 285.457031 305.617188 298.785156 307.742188 312.105469 C 306.09375 313.316406 304.445312 314.578125 302.800781 315.894531 L 267.0625 295.238281 C 266.949219 293.316406 266.828125 291.394531 266.71875 289.46875 Z M 263.855469 291.105469 C 263.902344 291.890625 263.949219 292.679688 263.996094 293.46875 L 261.890625 292.253906 C 262.546875 291.867188 263.203125 291.484375 263.855469 291.105469 Z M 226.875 247.03125 C 238.734375 243.714844 250.25 240.675781 261.558594 237.960938 C 262.03125 254.554688 262.734375 271.179688 263.667969 287.804688 C 262.09375 288.703125 260.523438 289.621094 258.945312 290.550781 L 226.875 272.015625 Z M 223.921875 247.859375 L 223.921875 270.308594 L 198.09375 255.378906 C 206.910156 252.75 215.507812 250.234375 223.921875 247.859375 Z M 261.476562 234.9375 C 250.1875 237.636719 238.699219 240.660156 226.875 243.960938 L 226.875 189.007812 L 260.839844 189.007812 C 260.851562 204.277344 261.066406 219.59375 261.476562 234.9375 Z M 298.78125 227.175781 C 287.421875 229.148438 276.015625 231.519531 264.410156 234.242188 C 264.011719 219.132812 263.804688 204.046875 263.792969 189.007812 L 297.761719 189.007812 C 297.785156 201.699219 298.128906 214.425781 298.78125 227.175781 Z M 301.714844 226.675781 C 301.074219 214.09375 300.738281 201.53125 300.714844 189.007812 L 334.675781 189.007812 C 334.71875 200.03125 335.214844 211.113281 336.171875 222.203125 C 324.613281 223.246094 313.183594 224.753906 301.714844 226.675781 Z M 304.90625 267.976562 C 303.578125 255.1875 302.566406 242.410156 301.867188 229.648438 C 313.375 227.710938 324.847656 226.195312 336.433594 225.152344 C 337.457031 236.070312 338.914062 247 340.808594 257.890625 C 328.941406 260.019531 317.058594 263.359375 304.90625 267.976562 Z M 279.792969 279.105469 C 275.378906 281.332031 270.960938 283.699219 266.53125 286.183594 C 265.632812 269.863281 264.953125 253.550781 264.496094 237.265625 C 276.128906 234.523438 287.558594 232.136719 298.933594 230.152344 C 299.648438 243.113281 300.691406 256.09375 302.054688 269.078125 C 294.753906 271.960938 287.355469 275.292969 279.792969 279.105469 Z M 341.328125 260.804688 C 342.125 265.207031 342.992188 269.605469 343.933594 273.992188 C 345.25 280.140625 346.714844 286.308594 348.324219 292.488281 C 341.296875 294.230469 334.402344 296.75 327.566406 300.066406 C 321.777344 302.875 316.085938 306.234375 310.425781 310.1875 C 308.367188 297.132812 306.636719 284.070312 305.230469 271.015625 C 317.460938 266.324219 329.40625 262.941406 341.328125 260.804688 Z M 189.957031 189.007812 L 223.921875 189.007812 L 223.921875 244.789062 C 214.390625 247.472656 204.628906 250.335938 194.574219 253.347656 L 188.847656 250.035156 C 189.5625 229.644531 189.9375 209.285156 189.957031 189.007812 Z M 153.035156 189.007812 L 187.003906 189.007812 C 186.984375 208.726562 186.628906 228.527344 185.949219 248.363281 L 151.929688 228.703125 C 152.636719 215.445312 153.011719 202.207031 153.035156 189.007812 Z M 112.730469 206.046875 L 83.242188 189.007812 L 113.167969 189.007812 C 113.144531 194.671875 112.996094 200.355469 112.730469 206.046875 Z M 116.121094 189.007812 L 150.082031 189.007812 C 150.058594 201.65625 149.714844 214.339844 149.0625 227.046875 L 115.605469 207.710938 C 115.917969 201.460938 116.097656 195.222656 116.121094 189.007812 Z M 113.167969 186.050781 L 83.242188 186.050781 L 112.730469 169.007812 C 112.996094 174.699219 113.144531 180.382812 113.167969 186.050781 Z M 150.082031 186.050781 L 116.121094 186.050781 C 116.097656 179.832031 115.917969 173.59375 115.605469 167.347656 L 149.0625 148.011719 C 149.714844 160.714844 150.058594 173.398438 150.082031 186.050781 Z M 187.003906 186.050781 L 153.035156 186.050781 C 153.011719 172.851562 152.636719 159.613281 151.929688 146.351562 L 185.949219 126.695312 C 186.628906 146.527344 186.984375 166.328125 187.003906 186.050781 Z M 223.921875 130.265625 L 223.921875 186.050781 L 189.957031 186.050781 C 189.9375 165.773438 189.5625 145.414062 188.847656 125.019531 L 194.574219 121.707031 C 204.628906 124.722656 214.390625 127.582031 223.921875 130.265625 Z M 223.921875 127.195312 C 215.507812 124.820312 206.910156 122.308594 198.09375 119.675781 L 223.921875 104.75 Z M 263.667969 87.25 C 262.734375 103.878906 262.03125 120.5 261.558594 137.09375 C 250.25 134.382812 238.734375 131.339844 226.875 128.027344 L 226.875 103.042969 L 258.949219 84.507812 C 260.523438 85.433594 262.09375 86.351562 263.667969 87.25 Z M 263.855469 83.949219 C 263.203125 83.574219 262.546875 83.1875 261.890625 82.804688 L 263.996094 81.589844 C 263.949219 82.375 263.902344 83.164062 263.855469 83.949219 Z M 305.230469 104.042969 C 306.636719 90.984375 308.367188 77.921875 310.425781 64.871094 C 316.085938 68.820312 321.777344 72.179688 327.566406 74.988281 C 334.402344 78.304688 341.296875 80.824219 348.324219 82.566406 C 346.714844 88.746094 345.25 94.914062 343.933594 101.066406 C 342.992188 105.453125 342.125 109.847656 341.328125 114.253906 C 329.40625 112.113281 317.460938 108.734375 305.230469 104.042969 Z M 301.867188 145.40625 C 302.566406 132.648438 303.578125 119.867188 304.90625 107.082031 C 317.058594 111.695312 328.941406 115.035156 340.808594 117.167969 C 338.914062 128.058594 337.457031 138.984375 336.433594 149.902344 C 324.847656 148.859375 313.375 147.34375 301.867188 145.40625 Z M 301.714844 148.382812 C 313.183594 150.304688 324.613281 151.8125 336.171875 152.851562 C 335.214844 163.945312 334.71875 175.023438 334.675781 186.050781 L 300.714844 186.050781 C 300.738281 173.523438 301.074219 160.964844 301.714844 148.382812 Z M 264.410156 140.8125 C 276.015625 143.535156 287.421875 145.910156 298.78125 147.882812 C 298.128906 160.628906 297.785156 173.355469 297.761719 186.050781 L 263.792969 186.050781 C 263.804688 171.007812 264.011719 155.925781 264.410156 140.8125 Z M 264.496094 137.789062 C 264.953125 121.503906 265.632812 105.191406 266.53125 88.875 C 270.960938 91.359375 275.378906 93.722656 279.792969 95.949219 C 287.355469 99.761719 294.753906 103.09375 302.054688 105.976562 C 300.691406 118.964844 299.648438 131.941406 298.933594 144.90625 C 287.558594 142.917969 276.128906 140.53125 264.496094 137.789062 Z M 261.476562 140.117188 C 261.066406 155.460938 260.851562 170.777344 260.839844 186.050781 L 226.875 186.050781 L 226.875 131.09375 C 238.699219 134.394531 250.1875 137.417969 261.476562 140.117188 Z M 305.554688 57.570312 L 308.953125 55.605469 C 308.726562 56.960938 308.496094 58.3125 308.273438 59.664062 C 307.367188 58.984375 306.460938 58.28125 305.554688 57.570312 Z M 307.742188 62.949219 C 305.617188 76.269531 303.828125 89.601562 302.378906 102.925781 C 295.410156 100.148438 288.339844 96.949219 281.121094 93.308594 C 276.332031 90.894531 271.535156 88.3125 266.71875 85.585938 C 266.828125 83.664062 266.949219 81.738281 267.0625 79.816406 L 302.800781 59.164062 C 304.445312 60.476562 306.09375 61.738281 307.742188 62.949219 Z M 74.777344 187.527344 L 374.539062 360.769531 L 374.539062 14.289062 Z M 74.777344 187.527344 " fill-opacity="1" fill-rule="nonzero"/></g></svg>