<svg xmlns="http://www.w3.org/2000/svg" xmlns:xlink="http://www.w3.org/1999/xlink" width="500" zoomAndPan="magnify" viewBox="0 0 375 374.999991" height="500" preserveAspectRatio="xMidYMid meet" version="1.0"><defs><clipPath id="991b3fd628"><path d="M 55 263 L 321 263 L 321 340.601562 L 55 340.601562 Z M 55 263 " clip-rule="nonzero"/></clipPath><clipPath id="e429990244"><path d="M 34.601562 34.601562 L 340.601562 34.601562 L 340.601562 261 L 34.601562 261 Z M 34.601562 34.601562 " clip-rule="nonzero"/></clipPath></defs><g clip-path="url(#991b3fd628)"><path fill="#ef529c" d="M 64.105469 277.894531 L 311.058594 277.894531 C 308.871094 280.878906 306.574219 283.78125 304.183594 286.597656 L 70.980469 286.597656 C 68.585938 283.78125 66.292969 280.878906 64.105469 277.894531 Z M 55.003906 263.953125 C 56.890625 267.226562 58.898438 270.417969 61.019531 273.53125 L 314.144531 273.53125 C 316.261719 270.417969 318.269531 267.226562 320.160156 263.953125 Z M 83.480469 299.667969 L 291.679688 299.667969 C 294.386719 297.148438 297.003906 294.539062 299.523438 291.832031 L 75.636719 291.832031 C 78.15625 294.539062 80.773438 297.152344 83.480469 299.667969 Z M 99.597656 312.734375 L 275.566406 312.734375 C 278.703125 310.527344 281.753906 308.207031 284.710938 305.773438 L 90.453125 305.773438 C 93.40625 308.207031 96.460938 310.527344 99.597656 312.734375 Z M 121.953125 325.800781 L 253.207031 325.800781 C 257.136719 323.929688 260.972656 321.898438 264.710938 319.710938 L 110.453125 319.710938 C 114.1875 321.898438 118.023438 323.929688 121.953125 325.800781 Z M 187.582031 340.5625 C 203.457031 340.5625 218.769531 338.140625 233.171875 333.652344 L 141.992188 333.652344 C 156.390625 338.140625 171.703125 340.5625 187.582031 340.5625 Z M 187.582031 340.5625 " fill-opacity="1" fill-rule="nonzero"/></g><g clip-path="url(#e429990244)"><path fill="#ef4523" d="M 48.078125 250.449219 L 327.085938 250.449219 C 325.546875 253.859375 323.890625 257.195312 322.113281 260.464844 L 53.046875 260.464844 C 51.273438 257.199219 49.613281 253.859375 48.078125 250.449219 Z M 46.554688 246.960938 L 328.605469 246.960938 C 330.109375 243.398438 331.476562 239.769531 332.707031 236.074219 L 42.453125 236.074219 C 43.6875 239.769531 45.054688 243.402344 46.554688 246.960938 Z M 187.582031 34.601562 C 103.09375 34.601562 34.601562 103.09375 34.601562 187.582031 C 34.601562 199 35.859375 210.117188 38.234375 220.820312 L 336.925781 220.820312 C 339.300781 210.117188 340.5625 198.996094 340.5625 187.582031 C 340.5625 103.09375 272.070312 34.601562 187.582031 34.601562 Z M 41.886719 234.332031 L 333.273438 234.332031 C 334.601562 230.191406 335.75 225.976562 336.726562 221.695312 L 38.433594 221.695312 C 39.410156 225.976562 40.558594 230.191406 41.886719 234.332031 Z M 41.886719 234.332031 " fill-opacity="1" fill-rule="nonzero"/></g></svg>